<svg width="171" height="171" viewBox="0 0 171 171" fill="none" xmlns="http://www.w3.org/2000/svg">
<path d="M120.383 54.2964C122.035 51.6732 120.654 47.8326 117.297 45.7182C113.94 43.6038 109.88 44.0163 108.227 46.6395C106.575 49.2627 107.957 53.1033 111.313 55.2177C114.67 57.3321 118.731 56.9196 120.383 54.2964Z" fill="url(#paint0_linear_27_88)"/>
<path fill-rule="evenodd" clip-rule="evenodd" d="M91.136 47.538H103.961C110.041 47.538 115.825 48.8072 121.061 51.0952V107.388H56.936V81.738C56.936 62.8497 72.2478 47.538 91.136 47.538Z" fill="url(#paint1_radial_27_88)"/>
<path fill-rule="evenodd" clip-rule="evenodd" d="M91.136 47.538H103.961C110.041 47.538 115.825 48.8072 121.061 51.0952V107.388H56.936V81.738C56.936 62.8497 72.2478 47.538 91.136 47.538Z" fill="url(#paint2_linear_27_88)"/>
<path fill-rule="evenodd" clip-rule="evenodd" d="M103.961 49.0342H91.136C73.0742 49.0342 58.4323 63.6761 58.4323 81.738V105.892H119.565V52.0869C114.753 50.1193 109.486 49.0342 103.961 49.0342ZM121.061 51.0952C115.825 48.8072 110.041 47.538 103.961 47.538H91.136C72.2478 47.538 56.936 62.8497 56.936 81.738V107.388H121.061V51.0952Z" fill="url(#paint3_radial_27_88)"/>
<path d="M37.6982 120.213C29.1482 120.213 22.7359 109.525 27.0107 107.388L42.089 103.113C52.0254 105.25 70.188 109.525 63.348 109.525C54.7982 109.525 48.3857 120.213 37.6982 120.213Z" fill="url(#paint4_radial_27_88)"/>
<path d="M121.061 51.0949V107.388H142.436C144.797 107.388 146.711 105.474 146.711 103.113V90.2876C146.711 72.7575 136.159 57.6917 121.061 51.0949Z" fill="url(#paint5_radial_27_88)"/>
<path d="M121.061 51.0949V107.388H142.436C144.797 107.388 146.711 105.474 146.711 103.113V90.2876C146.711 72.7575 136.159 57.6917 121.061 51.0949Z" fill="url(#paint6_linear_27_88)"/>
<path d="M121.061 51.0949V107.388H142.436C144.797 107.388 146.711 105.474 146.711 103.113V90.2876C146.711 72.7575 136.159 57.6917 121.061 51.0949Z" fill="url(#paint7_linear_27_88)"/>
<path d="M121.061 51.0949V107.388H142.436C144.797 107.388 146.711 105.474 146.711 103.113V90.2876C146.711 72.7575 136.159 57.6917 121.061 51.0949Z" fill="url(#paint8_linear_27_88)"/>
<path d="M57.0779 90.8224C88.5698 90.8424 105.575 97.532 120.227 107.466C111.804 115.885 103.482 123.954 91.1361 123.954C84.8416 123.954 79.3927 121.952 74.5324 119.354C72.1008 118.054 69.8218 116.607 67.6569 115.189C67.1486 114.855 66.6463 114.523 66.1496 114.195C64.5362 113.129 62.9814 112.102 61.486 111.205C56.0522 107.945 49.5543 106.326 43.3558 105.787C38.5994 105.373 33.9969 105.593 30.1531 106.208L57.0779 90.8224Z" fill="url(#paint9_radial_27_88)"/>
<path d="M57.0779 90.8224C88.5698 90.8424 105.575 97.532 120.227 107.466C111.804 115.885 103.482 123.954 91.1361 123.954C84.8416 123.954 79.3927 121.952 74.5324 119.354C72.1008 118.054 69.8218 116.607 67.6569 115.189C67.1486 114.855 66.6463 114.523 66.1496 114.195C64.5362 113.129 62.9814 112.102 61.486 111.205C56.0522 107.945 49.5543 106.326 43.3558 105.787C38.5994 105.373 33.9969 105.593 30.1531 106.208L57.0779 90.8224Z" fill="url(#paint10_linear_27_88)"/>
<path d="M57.0779 90.8224C88.5698 90.8424 105.575 97.532 120.227 107.466C111.804 115.885 103.482 123.954 91.1361 123.954C84.8416 123.954 79.3927 121.952 74.5324 119.354C72.1008 118.054 69.8218 116.607 67.6569 115.189C67.1486 114.855 66.6463 114.523 66.1496 114.195C64.5362 113.129 62.9814 112.102 61.486 111.205C56.0522 107.945 49.5543 106.326 43.3558 105.787C38.5994 105.373 33.9969 105.593 30.1531 106.208L57.0779 90.8224Z" fill="url(#paint11_linear_27_88)"/>
<path d="M57.0779 90.8224C88.5698 90.8424 105.575 97.532 120.227 107.466C111.804 115.885 103.482 123.954 91.1361 123.954C84.8416 123.954 79.3927 121.952 74.5324 119.354C72.1008 118.054 69.8218 116.607 67.6569 115.189C67.1486 114.855 66.6463 114.523 66.1496 114.195C64.5362 113.129 62.9814 112.102 61.486 111.205C56.0522 107.945 49.5543 106.326 43.3558 105.787C38.5994 105.373 33.9969 105.593 30.1531 106.208L57.0779 90.8224Z" stroke="url(#paint12_radial_27_88)" stroke-width="0.25"/>
<path d="M57.0779 90.8224C88.5698 90.8424 105.575 97.532 120.227 107.466C111.804 115.885 103.482 123.954 91.1361 123.954C84.8416 123.954 79.3927 121.952 74.5324 119.354C72.1008 118.054 69.8218 116.607 67.6569 115.189C67.1486 114.855 66.6463 114.523 66.1496 114.195C64.5362 113.129 62.9814 112.102 61.486 111.205C56.0522 107.945 49.5543 106.326 43.3558 105.787C38.5994 105.373 33.9969 105.593 30.1531 106.208L57.0779 90.8224Z" stroke="url(#paint13_radial_27_88)" stroke-width="0.25"/>
<defs>
<linearGradient id="paint0_linear_27_88" x1="121.061" y1="55.7758" x2="123.955" y2="41.6755" gradientUnits="userSpaceOnUse">
<stop stop-color="#5C6EFF"/>
<stop offset="1" stop-color="#8099FF"/>
</linearGradient>
<radialGradient id="paint1_radial_27_88" cx="0" cy="0" r="1" gradientUnits="userSpaceOnUse" gradientTransform="translate(72.6454 97.4388) rotate(-30.7265) scale(69.818 96.6167)">
<stop offset="0.0376294" stop-color="#336AEE"/>
<stop offset="1" stop-color="#A8D5FF"/>
</radialGradient>
<linearGradient id="paint2_linear_27_88" x1="122.709" y1="42.1735" x2="115.882" y2="58.7531" gradientUnits="userSpaceOnUse">
<stop stop-color="#B5E1FF"/>
<stop offset="1" stop-color="#93C2FD" stop-opacity="0"/>
</linearGradient>
<radialGradient id="paint3_radial_27_88" cx="0" cy="0" r="1" gradientUnits="userSpaceOnUse" gradientTransform="translate(137.338 30.7954) rotate(127.593) scale(46.3615)">
<stop stop-color="#BBE5FF"/>
<stop offset="1" stop-color="#BBE5FF" stop-opacity="0"/>
</radialGradient>
<radialGradient id="paint4_radial_27_88" cx="0" cy="0" r="1" gradientUnits="userSpaceOnUse" gradientTransform="translate(50.9625 109.41) rotate(180) scale(34.7576 20.5904)">
<stop offset="0.0752434" stop-color="#4B4A8E"/>
<stop offset="0.581494" stop-color="#3F3C8B"/>
<stop offset="1" stop-color="#847AEA"/>
</radialGradient>
<radialGradient id="paint5_radial_27_88" cx="0" cy="0" r="1" gradientUnits="userSpaceOnUse" gradientTransform="translate(127.294 95.3436) rotate(90) scale(91.2785 41.5913)">
<stop offset="0.166686" stop-color="#6C8DFF"/>
<stop offset="0.36165" stop-color="#7D9EFF"/>
<stop offset="0.619506" stop-color="#DDE5FF"/>
</radialGradient>
<linearGradient id="paint6_linear_27_88" x1="113.863" y1="71.566" x2="132.339" y2="71.4519" gradientUnits="userSpaceOnUse">
<stop offset="0.413043" stop-color="#456CF8"/>
<stop offset="0.6294" stop-color="#6E92FF" stop-opacity="0"/>
</linearGradient>
<linearGradient id="paint7_linear_27_88" x1="129.384" y1="111.452" x2="129.384" y2="98.9761" gradientUnits="userSpaceOnUse">
<stop offset="0.413043" stop-color="#5478FA"/>
<stop offset="0.826087" stop-color="#6E92FF" stop-opacity="0"/>
</linearGradient>
<linearGradient id="paint8_linear_27_88" x1="129.384" y1="120.658" x2="129.384" y2="101.691" gradientUnits="userSpaceOnUse">
<stop offset="0.632309" stop-color="#966CFC"/>
<stop offset="0.973555" stop-color="#6659FF" stop-opacity="0"/>
</linearGradient>
<radialGradient id="paint9_radial_27_88" cx="0" cy="0" r="1" gradientUnits="userSpaceOnUse" gradientTransform="translate(63.3486 111.663) rotate(73.9609) scale(38.6817 38.6817)">
<stop stop-color="#6F86F9"/>
<stop offset="1" stop-color="#4563DD"/>
</radialGradient>
<linearGradient id="paint10_linear_27_88" x1="40.7047" y1="96.1024" x2="46.8944" y2="105.758" gradientUnits="userSpaceOnUse">
<stop stop-color="#4765D7"/>
<stop offset="1" stop-color="#4F6FDF" stop-opacity="0"/>
</linearGradient>
<linearGradient id="paint11_linear_27_88" x1="101.364" y1="128.536" x2="94.1842" y2="117.89" gradientUnits="userSpaceOnUse">
<stop stop-color="#3758D2"/>
<stop offset="1" stop-color="#4F6FDF" stop-opacity="0"/>
</linearGradient>
<radialGradient id="paint12_radial_27_88" cx="0" cy="0" r="1" gradientUnits="userSpaceOnUse" gradientTransform="translate(87.9944 92.3887) rotate(109.118) scale(15.875 28.0293)">
<stop stop-color="#3A5AD5"/>
<stop offset="1" stop-color="#3A5AD5" stop-opacity="0"/>
</radialGradient>
<radialGradient id="paint13_radial_27_88" cx="0" cy="0" r="1" gradientUnits="userSpaceOnUse" gradientTransform="translate(72.0213 124.488) rotate(-57.788) scale(20.2108 35.6847)">
<stop stop-color="#3A5AD5" stop-opacity="0.56"/>
<stop offset="1" stop-color="#3A5AD5" stop-opacity="0"/>
</radialGradient>
</defs>
</svg>
