<svg width="40" height="40" viewBox="0 0 40 40" fill="none" xmlns="http://www.w3.org/2000/svg">
<path d="M9.37891 27.8016C10.2354 27.8016 10.9297 27.1073 10.9297 26.2509C10.9297 25.3944 10.2354 24.7001 9.37891 24.7001C8.52243 24.7001 7.82812 25.3944 7.82812 26.2509C7.82812 27.1073 8.52243 27.8016 9.37891 27.8016Z" fill="url(#paint0_radial_15_770)"/>
<path d="M30.6328 27.8134C31.4893 27.8134 32.1836 27.119 32.1836 26.2626C32.1836 25.4061 31.4893 24.7118 30.6328 24.7118C29.7763 24.7118 29.082 25.4061 29.082 26.2626C29.082 27.119 29.7763 27.8134 30.6328 27.8134Z" fill="url(#paint1_radial_15_770)"/>
<path d="M30.6328 27.8134C31.4893 27.8134 32.1836 27.119 32.1836 26.2626C32.1836 25.4061 31.4893 24.7118 30.6328 24.7118C29.7763 24.7118 29.082 25.4061 29.082 26.2626C29.082 27.119 29.7763 27.8134 30.6328 27.8134Z" fill="url(#paint2_radial_15_770)"/>
<path d="M13.0078 16.0829C12.4078 16.9829 11.9714 18.2079 11.8203 18.6766L14.1641 20.3641L15.9531 18.0985C15.7422 17.773 15.2406 17.0477 14.9531 16.6727C14.6656 16.2977 14.2318 15.8394 14.0547 15.6571L13.0078 16.0829Z" fill="url(#paint3_radial_15_770)"/>
<path d="M13.0078 16.0829C12.4078 16.9829 11.9714 18.2079 11.8203 18.6766L14.1641 20.3641L15.9531 18.0985C15.7422 17.773 15.2406 17.0477 14.9531 16.6727C14.6656 16.2977 14.2318 15.8394 14.0547 15.6571L13.0078 16.0829Z" fill="url(#paint4_radial_15_770)"/>
<path d="M26.9922 16.0829C27.5922 16.9829 28.0286 18.2079 28.1797 18.6766L25.8359 20.3641L24.0469 18.0985C24.2578 17.773 24.7594 17.0477 25.0469 16.6727C25.3344 16.2977 25.7682 15.8394 25.9453 15.6571L26.9922 16.0829Z" fill="url(#paint5_radial_15_770)"/>
<path d="M26.9922 16.0829C27.5922 16.9829 28.0286 18.2079 28.1797 18.6766L25.8359 20.3641L24.0469 18.0985C24.2578 17.773 24.7594 17.0477 25.0469 16.6727C25.3344 16.2977 25.7682 15.8394 25.9453 15.6571L26.9922 16.0829Z" fill="url(#paint6_radial_15_770)"/>
<path d="M26.9922 16.0829C27.5922 16.9829 28.0286 18.2079 28.1797 18.6766L25.8359 20.3641L24.0469 18.0985C24.2578 17.773 24.7594 17.0477 25.0469 16.6727C25.3344 16.2977 25.7682 15.8394 25.9453 15.6571L26.9922 16.0829Z" fill="url(#paint7_radial_15_770)"/>
<g filter="url(#filter0_ii_15_770)">
<path d="M7.125 16.1532L10.2312 31.3119C10.3838 32.0563 11.0388 32.5907 11.7987 32.5907H28.2013C28.9612 32.5907 29.6162 32.0563 29.7688 31.3119L32.875 16.1532L31.8834 15.6688C30.3986 16.7469 27.2914 18.9579 26.4887 19.4423C25.8486 19.8285 25.2607 19.199 25.139 19.0204C24.0215 17.3798 22.3172 14.9919 21.6797 14.1532C21.0265 13.2938 20.2886 12.8693 20 12.8329C19.7114 12.8693 18.9735 13.2938 18.3203 14.1532C17.6828 14.9919 15.9785 17.3798 14.861 19.0204C14.7393 19.199 14.1514 19.8285 13.5113 19.4423C12.7086 18.9579 9.60137 16.7469 8.1166 15.6688L7.125 16.1532Z" fill="url(#paint8_linear_15_770)"/>
<path d="M7.125 16.1532L10.2312 31.3119C10.3838 32.0563 11.0388 32.5907 11.7987 32.5907H28.2013C28.9612 32.5907 29.6162 32.0563 29.7688 31.3119L32.875 16.1532L31.8834 15.6688C30.3986 16.7469 27.2914 18.9579 26.4887 19.4423C25.8486 19.8285 25.2607 19.199 25.139 19.0204C24.0215 17.3798 22.3172 14.9919 21.6797 14.1532C21.0265 13.2938 20.2886 12.8693 20 12.8329C19.7114 12.8693 18.9735 13.2938 18.3203 14.1532C17.6828 14.9919 15.9785 17.3798 14.861 19.0204C14.7393 19.199 14.1514 19.8285 13.5113 19.4423C12.7086 18.9579 9.60137 16.7469 8.1166 15.6688L7.125 16.1532Z" fill="url(#paint9_radial_15_770)"/>
</g>
<path d="M7.125 16.1532L10.2312 31.3119C10.3838 32.0563 11.0388 32.5907 11.7987 32.5907H28.2013C28.9612 32.5907 29.6162 32.0563 29.7688 31.3119L32.875 16.1532L31.8834 15.6688C30.3986 16.7469 27.2914 18.9579 26.4887 19.4423C25.8486 19.8285 25.2607 19.199 25.139 19.0204C24.0215 17.3798 22.3172 14.9919 21.6797 14.1532C21.0265 13.2938 20.2886 12.8693 20 12.8329C19.7114 12.8693 18.9735 13.2938 18.3203 14.1532C17.6828 14.9919 15.9785 17.3798 14.861 19.0204C14.7393 19.199 14.1514 19.8285 13.5113 19.4423C12.7086 18.9579 9.60137 16.7469 8.1166 15.6688L7.125 16.1532Z" fill="url(#paint10_linear_15_770)"/>
<path d="M7.125 16.1532L10.2312 31.3119C10.3838 32.0563 11.0388 32.5907 11.7987 32.5907H28.2013C28.9612 32.5907 29.6162 32.0563 29.7688 31.3119L32.875 16.1532L31.8834 15.6688C30.3986 16.7469 27.2914 18.9579 26.4887 19.4423C25.8486 19.8285 25.2607 19.199 25.139 19.0204C24.0215 17.3798 22.3172 14.9919 21.6797 14.1532C21.0265 13.2938 20.2886 12.8693 20 12.8329C19.7114 12.8693 18.9735 13.2938 18.3203 14.1532C17.6828 14.9919 15.9785 17.3798 14.861 19.0204C14.7393 19.199 14.1514 19.8285 13.5113 19.4423C12.7086 18.9579 9.60137 16.7469 8.1166 15.6688L7.125 16.1532Z" fill="url(#paint11_linear_15_770)"/>
<path d="M7.125 16.1532L10.2312 31.3119C10.3838 32.0563 11.0388 32.5907 11.7987 32.5907H28.2013C28.9612 32.5907 29.6162 32.0563 29.7688 31.3119L32.875 16.1532L31.8834 15.6688C30.3986 16.7469 27.2914 18.9579 26.4887 19.4423C25.8486 19.8285 25.2607 19.199 25.139 19.0204C24.0215 17.3798 22.3172 14.9919 21.6797 14.1532C21.0265 13.2938 20.2886 12.8693 20 12.8329C19.7114 12.8693 18.9735 13.2938 18.3203 14.1532C17.6828 14.9919 15.9785 17.3798 14.861 19.0204C14.7393 19.199 14.1514 19.8285 13.5113 19.4423C12.7086 18.9579 9.60137 16.7469 8.1166 15.6688L7.125 16.1532Z" fill="url(#paint12_linear_15_770)"/>
<path d="M7.125 16.1532L10.2312 31.3119C10.3838 32.0563 11.0388 32.5907 11.7987 32.5907H28.2013C28.9612 32.5907 29.6162 32.0563 29.7688 31.3119L32.875 16.1532L31.8834 15.6688C30.3986 16.7469 27.2914 18.9579 26.4887 19.4423C25.8486 19.8285 25.2607 19.199 25.139 19.0204C24.0215 17.3798 22.3172 14.9919 21.6797 14.1532C21.0265 13.2938 20.2886 12.8693 20 12.8329C19.7114 12.8693 18.9735 13.2938 18.3203 14.1532C17.6828 14.9919 15.9785 17.3798 14.861 19.0204C14.7393 19.199 14.1514 19.8285 13.5113 19.4423C12.7086 18.9579 9.60137 16.7469 8.1166 15.6688L7.125 16.1532Z" fill="url(#paint13_radial_15_770)"/>
<path d="M7.125 16.1532L10.2312 31.3119C10.3838 32.0563 11.0388 32.5907 11.7987 32.5907H28.2013C28.9612 32.5907 29.6162 32.0563 29.7688 31.3119L32.875 16.1532L31.8834 15.6688C30.3986 16.7469 27.2914 18.9579 26.4887 19.4423C25.8486 19.8285 25.2607 19.199 25.139 19.0204C24.0215 17.3798 22.3172 14.9919 21.6797 14.1532C21.0265 13.2938 20.2886 12.8693 20 12.8329C19.7114 12.8693 18.9735 13.2938 18.3203 14.1532C17.6828 14.9919 15.9785 17.3798 14.861 19.0204C14.7393 19.199 14.1514 19.8285 13.5113 19.4423C12.7086 18.9579 9.60137 16.7469 8.1166 15.6688L7.125 16.1532Z" fill="url(#paint14_radial_15_770)"/>
<path d="M7.125 16.1532L10.2312 31.3119C10.3838 32.0563 11.0388 32.5907 11.7987 32.5907H28.2013C28.9612 32.5907 29.6162 32.0563 29.7688 31.3119L32.875 16.1532L31.8834 15.6688C30.3986 16.7469 27.2914 18.9579 26.4887 19.4423C25.8486 19.8285 25.2607 19.199 25.139 19.0204C24.0215 17.3798 22.3172 14.9919 21.6797 14.1532C21.0265 13.2938 20.2886 12.8693 20 12.8329C19.7114 12.8693 18.9735 13.2938 18.3203 14.1532C17.6828 14.9919 15.9785 17.3798 14.861 19.0204C14.7393 19.199 14.1514 19.8285 13.5113 19.4423C12.7086 18.9579 9.60137 16.7469 8.1166 15.6688L7.125 16.1532Z" fill="url(#paint15_radial_15_770)"/>
<g filter="url(#filter1_di_15_770)">
<path d="M27.7793 26.7426C27.5142 27.557 26.662 27.9652 25.8476 27.7001C25.2344 27.4501 24.9692 26.7489 25.2344 25.9345C25.4995 25.1201 26.3344 24.6528 26.8398 24.8173C27.6542 25.0824 28.0445 25.9282 27.7793 26.7426Z" fill="url(#paint16_radial_15_770)"/>
<path d="M27.7793 26.7426C27.5142 27.557 26.662 27.9652 25.8476 27.7001C25.2344 27.4501 24.9692 26.7489 25.2344 25.9345C25.4995 25.1201 26.3344 24.6528 26.8398 24.8173C27.6542 25.0824 28.0445 25.9282 27.7793 26.7426Z" fill="url(#paint17_radial_15_770)"/>
</g>
<g filter="url(#filter2_di_15_770)">
<path d="M12.2971 26.7426C12.5622 27.557 13.4144 27.9652 14.2288 27.7001C14.8421 27.4501 15.1072 26.7489 14.8421 25.9345C14.5769 25.1201 13.742 24.6528 13.2366 24.8173C12.4222 25.0824 12.0319 25.9282 12.2971 26.7426Z" fill="url(#paint18_radial_15_770)"/>
<path d="M12.2971 26.7426C12.5622 27.557 13.4144 27.9652 14.2288 27.7001C14.8421 27.4501 15.1072 26.7489 14.8421 25.9345C14.5769 25.1201 13.742 24.6528 13.2366 24.8173C12.4222 25.0824 12.0319 25.9282 12.2971 26.7426Z" fill="url(#paint19_radial_15_770)"/>
</g>
<path d="M8.92188 15.9247C8.92188 16.6927 8.29927 17.3153 7.53126 17.3153C6.76324 17.3153 6.14062 16.6927 6.14062 15.9247C6.14062 15.1567 6.76324 14.5341 7.53126 14.5341C8.29927 14.5341 8.92188 15.1567 8.92188 15.9247Z" fill="url(#paint20_radial_15_770)"/>
<path d="M8.92188 15.9247C8.92188 16.6927 8.29927 17.3153 7.53126 17.3153C6.76324 17.3153 6.14062 16.6927 6.14062 15.9247C6.14062 15.1567 6.76324 14.5341 7.53126 14.5341C8.29927 14.5341 8.92188 15.1567 8.92188 15.9247Z" fill="url(#paint21_radial_15_770)"/>
<path d="M8.92188 15.9247C8.92188 16.6927 8.29927 17.3153 7.53126 17.3153C6.76324 17.3153 6.14062 16.6927 6.14062 15.9247C6.14062 15.1567 6.76324 14.5341 7.53126 14.5341C8.29927 14.5341 8.92188 15.1567 8.92188 15.9247Z" fill="url(#paint22_radial_15_770)"/>
<path d="M8.92188 15.9247C8.92188 16.6927 8.29927 17.3153 7.53126 17.3153C6.76324 17.3153 6.14062 16.6927 6.14062 15.9247C6.14062 15.1567 6.76324 14.5341 7.53126 14.5341C8.29927 14.5341 8.92188 15.1567 8.92188 15.9247Z" fill="url(#paint23_radial_15_770)"/>
<path d="M14.2807 16.1797C14.6924 15.9383 14.9688 15.4911 14.9688 14.9794C14.9688 14.2113 14.3461 13.5887 13.5781 13.5887C12.8101 13.5887 12.1875 14.2113 12.1875 14.9794C12.1875 15.5115 12.4864 15.9738 12.9254 16.2076C13.0125 16.173 13.1714 16.1388 13.3438 16.1884C13.5581 16.2501 13.91 16.3279 14.2807 16.1797Z" fill="url(#paint24_radial_15_770)"/>
<path d="M14.2807 16.1797C14.6924 15.9383 14.9688 15.4911 14.9688 14.9794C14.9688 14.2113 14.3461 13.5887 13.5781 13.5887C12.8101 13.5887 12.1875 14.2113 12.1875 14.9794C12.1875 15.5115 12.4864 15.9738 12.9254 16.2076C13.0125 16.173 13.1714 16.1388 13.3438 16.1884C13.5581 16.2501 13.91 16.3279 14.2807 16.1797Z" fill="url(#paint25_radial_15_770)"/>
<path d="M14.2807 16.1797C14.6924 15.9383 14.9688 15.4911 14.9688 14.9794C14.9688 14.2113 14.3461 13.5887 13.5781 13.5887C12.8101 13.5887 12.1875 14.2113 12.1875 14.9794C12.1875 15.5115 12.4864 15.9738 12.9254 16.2076C13.0125 16.173 13.1714 16.1388 13.3438 16.1884C13.5581 16.2501 13.91 16.3279 14.2807 16.1797Z" fill="url(#paint26_radial_15_770)"/>
<path d="M14.2807 16.1797C14.6924 15.9383 14.9688 15.4911 14.9688 14.9794C14.9688 14.2113 14.3461 13.5887 13.5781 13.5887C12.8101 13.5887 12.1875 14.2113 12.1875 14.9794C12.1875 15.5115 12.4864 15.9738 12.9254 16.2076C13.0125 16.173 13.1714 16.1388 13.3438 16.1884C13.5581 16.2501 13.91 16.3279 14.2807 16.1797Z" fill="url(#paint27_radial_15_770)"/>
<g filter="url(#filter3_i_15_770)">
<path d="M25.7193 16.1797C25.3076 15.9383 25.0312 15.4911 25.0312 14.9794C25.0312 14.2113 25.6539 13.5887 26.4219 13.5887C27.1899 13.5887 27.8125 14.2113 27.8125 14.9794C27.8125 15.5115 27.5136 15.9738 27.0746 16.2076C26.9875 16.173 26.8286 16.1388 26.6563 16.1884C26.4419 16.2501 26.09 16.3279 25.7193 16.1797Z" fill="url(#paint28_radial_15_770)"/>
<path d="M25.7193 16.1797C25.3076 15.9383 25.0312 15.4911 25.0312 14.9794C25.0312 14.2113 25.6539 13.5887 26.4219 13.5887C27.1899 13.5887 27.8125 14.2113 27.8125 14.9794C27.8125 15.5115 27.5136 15.9738 27.0746 16.2076C26.9875 16.173 26.8286 16.1388 26.6563 16.1884C26.4419 16.2501 26.09 16.3279 25.7193 16.1797Z" fill="url(#paint29_radial_15_770)"/>
</g>
<g filter="url(#filter4_di_15_770)">
<path d="M20.0382 28.7939C21.4012 28.7939 22.5061 27.6889 22.5061 26.3259C22.5061 24.963 21.4012 23.858 20.0382 23.858C18.6752 23.858 17.5703 24.963 17.5703 26.3259C17.5703 27.6889 18.6752 28.7939 20.0382 28.7939Z" fill="url(#paint30_radial_15_770)"/>
</g>
<g filter="url(#filter5_f_15_770)">
<path d="M20.2109 13.3551C20.3828 13.3343 20.8234 13.4239 21.2109 13.9489C21.5984 14.4739 23.9557 17.8343 25.0859 19.4489C25.3047 19.7874 25.9516 20.3208 26.7891 19.7458C27.6266 19.1708 30.3203 17.2209 31.3359 16.5438" stroke="url(#paint31_linear_15_770)" stroke-width="0.15"/>
<path d="M20.2109 13.3551C20.3828 13.3343 20.8234 13.4239 21.2109 13.9489C21.5984 14.4739 23.9557 17.8343 25.0859 19.4489C25.3047 19.7874 25.9516 20.3208 26.7891 19.7458C27.6266 19.1708 30.3203 17.2209 31.3359 16.5438" stroke="url(#paint32_radial_15_770)" stroke-width="0.15"/>
</g>
<path d="M19.9961 13.4462C20.9906 13.4462 21.7969 12.6399 21.7969 11.6454C21.7969 10.6508 20.9906 9.8446 19.9961 9.8446C19.0015 9.8446 18.1953 10.6508 18.1953 11.6454C18.1953 12.6399 19.0015 13.4462 19.9961 13.4462Z" fill="url(#paint33_radial_15_770)"/>
<path d="M19.9961 13.4462C20.9906 13.4462 21.7969 12.6399 21.7969 11.6454C21.7969 10.6508 20.9906 9.8446 19.9961 9.8446C19.0015 9.8446 18.1953 10.6508 18.1953 11.6454C18.1953 12.6399 19.0015 13.4462 19.9961 13.4462Z" fill="url(#paint34_radial_15_770)"/>
<path d="M19.9961 13.4462C20.9906 13.4462 21.7969 12.6399 21.7969 11.6454C21.7969 10.6508 20.9906 9.8446 19.9961 9.8446C19.0015 9.8446 18.1953 10.6508 18.1953 11.6454C18.1953 12.6399 19.0015 13.4462 19.9961 13.4462Z" fill="url(#paint35_radial_15_770)"/>
<path d="M19.9961 13.4462C20.9906 13.4462 21.7969 12.6399 21.7969 11.6454C21.7969 10.6508 20.9906 9.8446 19.9961 9.8446C19.0015 9.8446 18.1953 10.6508 18.1953 11.6454C18.1953 12.6399 19.0015 13.4462 19.9961 13.4462Z" fill="url(#paint36_radial_15_770)"/>
<path d="M33.9219 15.9247C33.9219 16.6927 33.2993 17.3153 32.5312 17.3153C31.7632 17.3153 31.1406 16.6927 31.1406 15.9247C31.1406 15.1567 31.7632 14.5341 32.5312 14.5341C33.2993 14.5341 33.9219 15.1567 33.9219 15.9247Z" fill="url(#paint37_radial_15_770)"/>
<path d="M33.9219 15.9247C33.9219 16.6927 33.2993 17.3153 32.5312 17.3153C31.7632 17.3153 31.1406 16.6927 31.1406 15.9247C31.1406 15.1567 31.7632 14.5341 32.5312 14.5341C33.2993 14.5341 33.9219 15.1567 33.9219 15.9247Z" fill="url(#paint38_radial_15_770)"/>
<path d="M33.9219 15.9247C33.9219 16.6927 33.2993 17.3153 32.5312 17.3153C31.7632 17.3153 31.1406 16.6927 31.1406 15.9247C31.1406 15.1567 31.7632 14.5341 32.5312 14.5341C33.2993 14.5341 33.9219 15.1567 33.9219 15.9247Z" fill="url(#paint39_radial_15_770)"/>
<path d="M33.9219 15.9247C33.9219 16.6927 33.2993 17.3153 32.5312 17.3153C31.7632 17.3153 31.1406 16.6927 31.1406 15.9247C31.1406 15.1567 31.7632 14.5341 32.5312 14.5341C33.2993 14.5341 33.9219 15.1567 33.9219 15.9247Z" fill="url(#paint40_radial_15_770)"/>
<defs>
<filter id="filter0_ii_15_770" x="6.725" y="12.7329" width="26.55" height="19.8578" filterUnits="userSpaceOnUse" color-interpolation-filters="sRGB">
<feFlood flood-opacity="0" result="BackgroundImageFix"/>
<feBlend mode="normal" in="SourceGraphic" in2="BackgroundImageFix" result="shape"/>
<feColorMatrix in="SourceAlpha" type="matrix" values="0 0 0 0 0 0 0 0 0 0 0 0 0 0 0 0 0 0 127 0" result="hardAlpha"/>
<feOffset dx="0.4" dy="-0.1"/>
<feGaussianBlur stdDeviation="0.25"/>
<feComposite in2="hardAlpha" operator="arithmetic" k2="-1" k3="1"/>
<feColorMatrix type="matrix" values="0 0 0 0 0.803922 0 0 0 0 0.580392 0 0 0 0 0.262745 0 0 0 1 0"/>
<feBlend mode="normal" in2="shape" result="effect1_innerShadow_15_770"/>
<feColorMatrix in="SourceAlpha" type="matrix" values="0 0 0 0 0 0 0 0 0 0 0 0 0 0 0 0 0 0 127 0" result="hardAlpha"/>
<feOffset dx="-0.4" dy="-0.1"/>
<feGaussianBlur stdDeviation="0.25"/>
<feComposite in2="hardAlpha" operator="arithmetic" k2="-1" k3="1"/>
<feColorMatrix type="matrix" values="0 0 0 0 0.894118 0 0 0 0 0.686275 0 0 0 0 0.301961 0 0 0 1 0"/>
<feBlend mode="normal" in2="effect1_innerShadow_15_770" result="effect2_innerShadow_15_770"/>
</filter>
<filter id="filter1_di_15_770" x="24.1319" y="24.2845" width="4.22989" height="4.49603" filterUnits="userSpaceOnUse" color-interpolation-filters="sRGB">
<feFlood flood-opacity="0" result="BackgroundImageFix"/>
<feColorMatrix in="SourceAlpha" type="matrix" values="0 0 0 0 0 0 0 0 0 0 0 0 0 0 0 0 0 0 127 0" result="hardAlpha"/>
<feOffset dx="-0.25" dy="0.25"/>
<feGaussianBlur stdDeviation="0.375"/>
<feComposite in2="hardAlpha" operator="out"/>
<feColorMatrix type="matrix" values="0 0 0 0 1 0 0 0 0 0.54902 0 0 0 0 0.305882 0 0 0 1 0"/>
<feBlend mode="normal" in2="BackgroundImageFix" result="effect1_dropShadow_15_770"/>
<feBlend mode="normal" in="SourceGraphic" in2="effect1_dropShadow_15_770" result="shape"/>
<feColorMatrix in="SourceAlpha" type="matrix" values="0 0 0 0 0 0 0 0 0 0 0 0 0 0 0 0 0 0 127 0" result="hardAlpha"/>
<feOffset dx="0.15" dy="-0.15"/>
<feGaussianBlur stdDeviation="0.25"/>
<feComposite in2="hardAlpha" operator="arithmetic" k2="-1" k3="1"/>
<feColorMatrix type="matrix" values="0 0 0 0 0.984314 0 0 0 0 0.219608 0 0 0 0 0.254902 0 0 0 1 0"/>
<feBlend mode="normal" in2="shape" result="effect2_innerShadow_15_770"/>
</filter>
<filter id="filter2_di_15_770" x="11.2146" y="24.2845" width="4.22995" height="4.49603" filterUnits="userSpaceOnUse" color-interpolation-filters="sRGB">
<feFlood flood-opacity="0" result="BackgroundImageFix"/>
<feColorMatrix in="SourceAlpha" type="matrix" values="0 0 0 0 0 0 0 0 0 0 0 0 0 0 0 0 0 0 127 0" result="hardAlpha"/>
<feOffset dx="-0.25" dy="0.25"/>
<feGaussianBlur stdDeviation="0.375"/>
<feComposite in2="hardAlpha" operator="out"/>
<feColorMatrix type="matrix" values="0 0 0 0 0.905882 0 0 0 0 0.439216 0 0 0 0 0.278431 0 0 0 1 0"/>
<feBlend mode="normal" in2="BackgroundImageFix" result="effect1_dropShadow_15_770"/>
<feBlend mode="normal" in="SourceGraphic" in2="effect1_dropShadow_15_770" result="shape"/>
<feColorMatrix in="SourceAlpha" type="matrix" values="0 0 0 0 0 0 0 0 0 0 0 0 0 0 0 0 0 0 127 0" result="hardAlpha"/>
<feOffset dx="0.3" dy="0.3"/>
<feGaussianBlur stdDeviation="0.3"/>
<feComposite in2="hardAlpha" operator="arithmetic" k2="-1" k3="1"/>
<feColorMatrix type="matrix" values="0 0 0 0 0.796078 0 0 0 0 0.141176 0 0 0 0 0.223529 0 0 0 1 0"/>
<feBlend mode="normal" in2="shape" result="effect2_innerShadow_15_770"/>
</filter>
<filter id="filter3_i_15_770" x="25.0312" y="13.5887" width="2.78131" height="2.67603" filterUnits="userSpaceOnUse" color-interpolation-filters="sRGB">
<feFlood flood-opacity="0" result="BackgroundImageFix"/>
<feBlend mode="normal" in="SourceGraphic" in2="BackgroundImageFix" result="shape"/>
<feColorMatrix in="SourceAlpha" type="matrix" values="0 0 0 0 0 0 0 0 0 0 0 0 0 0 0 0 0 0 127 0" result="hardAlpha"/>
<feOffset/>
<feGaussianBlur stdDeviation="0.125"/>
<feComposite in2="hardAlpha" operator="arithmetic" k2="-1" k3="1"/>
<feColorMatrix type="matrix" values="0 0 0 0 0.756863 0 0 0 0 0.619608 0 0 0 0 0.321569 0 0 0 1 0"/>
<feBlend mode="normal" in2="shape" result="effect1_innerShadow_15_770"/>
</filter>
<filter id="filter4_di_15_770" x="15.8203" y="23.108" width="7.43582" height="7.43582" filterUnits="userSpaceOnUse" color-interpolation-filters="sRGB">
<feFlood flood-opacity="0" result="BackgroundImageFix"/>
<feColorMatrix in="SourceAlpha" type="matrix" values="0 0 0 0 0 0 0 0 0 0 0 0 0 0 0 0 0 0 127 0" result="hardAlpha"/>
<feOffset dx="-0.5" dy="0.5"/>
<feGaussianBlur stdDeviation="0.625"/>
<feComposite in2="hardAlpha" operator="out"/>
<feColorMatrix type="matrix" values="0 0 0 0 0.937255 0 0 0 0 0.443137 0 0 0 0 0.376471 0 0 0 1 0"/>
<feBlend mode="normal" in2="BackgroundImageFix" result="effect1_dropShadow_15_770"/>
<feBlend mode="normal" in="SourceGraphic" in2="effect1_dropShadow_15_770" result="shape"/>
<feColorMatrix in="SourceAlpha" type="matrix" values="0 0 0 0 0 0 0 0 0 0 0 0 0 0 0 0 0 0 127 0" result="hardAlpha"/>
<feOffset dx="0.75" dy="-0.75"/>
<feGaussianBlur stdDeviation="0.75"/>
<feComposite in2="hardAlpha" operator="arithmetic" k2="-1" k3="1"/>
<feColorMatrix type="matrix" values="0 0 0 0 0.313726 0 0 0 0 0.384314 0 0 0 0 1 0 0 0 1 0"/>
<feBlend mode="normal" in2="shape" result="effect2_innerShadow_15_770"/>
</filter>
<filter id="filter5_f_15_770" x="20.0518" y="13.1274" width="11.4756" height="7.09759" filterUnits="userSpaceOnUse" color-interpolation-filters="sRGB">
<feFlood flood-opacity="0" result="BackgroundImageFix"/>
<feBlend mode="normal" in="SourceGraphic" in2="BackgroundImageFix" result="shape"/>
<feGaussianBlur stdDeviation="0.075" result="effect1_foregroundBlur_15_770"/>
</filter>
<radialGradient id="paint0_radial_15_770" cx="0" cy="0" r="1" gradientUnits="userSpaceOnUse" gradientTransform="translate(9.3789 27.2469) rotate(-103.54) scale(1.75182 2.1567)">
<stop stop-color="#395DE0"/>
<stop offset="1" stop-color="#2C68A3"/>
</radialGradient>
<radialGradient id="paint1_radial_15_770" cx="0" cy="0" r="1" gradientUnits="userSpaceOnUse" gradientTransform="translate(31.5937 24.9813) rotate(108.743) scale(2.99062 2.99062)">
<stop offset="0.248616" stop-color="#3DB3F3"/>
<stop offset="1" stop-color="#5B73F4"/>
</radialGradient>
<radialGradient id="paint2_radial_15_770" cx="0" cy="0" r="1" gradientUnits="userSpaceOnUse" gradientTransform="translate(32.0937 25.6532) rotate(161.162) scale(1.4033 0.889718)">
<stop offset="0.257996" stop-color="#5FBEFF"/>
<stop offset="1" stop-color="#5FBEFF" stop-opacity="0"/>
</radialGradient>
<radialGradient id="paint3_radial_15_770" cx="0" cy="0" r="1" gradientUnits="userSpaceOnUse" gradientTransform="translate(12.6563 17.5594) rotate(15.9454) scale(3.18505 7.94974)">
<stop stop-color="#FBC96E"/>
<stop offset="1" stop-color="#FAC567"/>
</radialGradient>
<radialGradient id="paint4_radial_15_770" cx="0" cy="0" r="1" gradientUnits="userSpaceOnUse" gradientTransform="translate(14.5312 18.2469) rotate(-156.753) scale(2.41481 7.26267)">
<stop offset="0.765376" stop-color="#D89F3A" stop-opacity="0"/>
<stop offset="0.91124" stop-color="#DAA139"/>
</radialGradient>
<radialGradient id="paint5_radial_15_770" cx="0" cy="0" r="1" gradientUnits="userSpaceOnUse" gradientTransform="translate(27.875 19.4969) rotate(-125.455) scale(2.53202 2.59683)">
<stop offset="0.254227" stop-color="#BF812A"/>
<stop offset="1" stop-color="#CE9333"/>
</radialGradient>
<radialGradient id="paint6_radial_15_770" cx="0" cy="0" r="1" gradientUnits="userSpaceOnUse" gradientTransform="translate(25.9219 18.2626) rotate(-23.0913) scale(2.19118 5.70837)">
<stop offset="0.734364" stop-color="#E9BB61" stop-opacity="0"/>
<stop offset="0.929116" stop-color="#E9BB61"/>
</radialGradient>
<radialGradient id="paint7_radial_15_770" cx="0" cy="0" r="1" gradientUnits="userSpaceOnUse" gradientTransform="translate(27.2188 18.8876) rotate(-142.922) scale(3.4469 5.81507)">
<stop offset="0.772711" stop-color="#C18739" stop-opacity="0"/>
<stop offset="0.948485" stop-color="#C18739"/>
</radialGradient>
<linearGradient id="paint8_linear_15_770" x1="27.2057" y1="24.5799" x2="9.5403" y2="28.7001" gradientUnits="userSpaceOnUse">
<stop stop-color="#FFBC5D"/>
<stop offset="0.303505" stop-color="#FCAD6A"/>
<stop offset="1" stop-color="#CB7547"/>
</linearGradient>
<radialGradient id="paint9_radial_15_770" cx="0" cy="0" r="1" gradientUnits="userSpaceOnUse" gradientTransform="translate(16.1326 35.8589) rotate(-69.4212) scale(11.0026 21.4146)">
<stop stop-color="#F67B4E"/>
<stop offset="1" stop-color="#F67B4E" stop-opacity="0"/>
</radialGradient>
<linearGradient id="paint10_linear_15_770" x1="9.28125" y1="28.2782" x2="12" y2="27.7157" gradientUnits="userSpaceOnUse">
<stop stop-color="#C2794C"/>
<stop offset="1" stop-color="#E07648" stop-opacity="0"/>
</linearGradient>
<linearGradient id="paint11_linear_15_770" x1="30.625" y1="30.0282" x2="26" y2="28.9657" gradientUnits="userSpaceOnUse">
<stop offset="0.128534" stop-color="#FFBB5B"/>
<stop offset="1" stop-color="#FFBB5B" stop-opacity="0"/>
</linearGradient>
<linearGradient id="paint12_linear_15_770" x1="21.4375" y1="32.8719" x2="21.4375" y2="31.6844" gradientUnits="userSpaceOnUse">
<stop offset="0.184212" stop-color="#FF6F8C"/>
<stop offset="1" stop-color="#FF7A6A" stop-opacity="0"/>
</linearGradient>
<radialGradient id="paint13_radial_15_770" cx="0" cy="0" r="1" gradientUnits="userSpaceOnUse" gradientTransform="translate(32.0625 16.4032) rotate(113.385) scale(2.51945 2.08843)">
<stop offset="0.377231" stop-color="#DD9049"/>
<stop offset="1" stop-color="#F8BF60" stop-opacity="0"/>
</radialGradient>
<radialGradient id="paint14_radial_15_770" cx="0" cy="0" r="1" gradientUnits="userSpaceOnUse" gradientTransform="translate(8.04688 16.5438) rotate(64.2171) scale(2.04759 1.11998)">
<stop offset="0.195602" stop-color="#D7783D"/>
<stop offset="1" stop-color="#D7783D" stop-opacity="0"/>
</radialGradient>
<radialGradient id="paint15_radial_15_770" cx="0" cy="0" r="1" gradientUnits="userSpaceOnUse" gradientTransform="translate(20 12.8329) rotate(76.0568) scale(1.1672 2.55602)">
<stop offset="0.382465" stop-color="#D48C33"/>
<stop offset="1" stop-color="#FEB16A" stop-opacity="0"/>
</radialGradient>
<radialGradient id="paint16_radial_15_770" cx="0" cy="0" r="1" gradientUnits="userSpaceOnUse" gradientTransform="translate(26.0312 27.0595) rotate(-51.5819) scale(2.31334 1.4927)">
<stop stop-color="#FF196C"/>
<stop offset="1" stop-color="#FF1F4A"/>
</radialGradient>
<radialGradient id="paint17_radial_15_770" cx="0" cy="0" r="1" gradientUnits="userSpaceOnUse" gradientTransform="translate(27.625 25.8407) rotate(149.744) scale(1.73656 1.09996)">
<stop offset="0.222789" stop-color="#FF5873"/>
<stop offset="1" stop-color="#FF5873" stop-opacity="0"/>
</radialGradient>
<radialGradient id="paint18_radial_15_770" cx="0" cy="0" r="1" gradientUnits="userSpaceOnUse" gradientTransform="translate(13.8126 27.122) rotate(-104.281) scale(1.77356 1.69812)">
<stop stop-color="#F6196C"/>
<stop offset="1" stop-color="#E42047"/>
</radialGradient>
<radialGradient id="paint19_radial_15_770" cx="0" cy="0" r="1" gradientUnits="userSpaceOnUse" gradientTransform="translate(14.547 26.0439) rotate(155.726) scale(0.874163 0.765693)">
<stop stop-color="#FE536F"/>
<stop offset="1" stop-color="#FE536F" stop-opacity="0"/>
</radialGradient>
<radialGradient id="paint20_radial_15_770" cx="0" cy="0" r="1" gradientUnits="userSpaceOnUse" gradientTransform="translate(8.65626 14.9745) rotate(135.198) scale(2.97287 3.09287)">
<stop offset="0.172433" stop-color="#E7C04E"/>
<stop offset="1" stop-color="#D9972A"/>
</radialGradient>
<radialGradient id="paint21_radial_15_770" cx="0" cy="0" r="1" gradientUnits="userSpaceOnUse" gradientTransform="translate(7.21876 17.4969) rotate(-71.3305) scale(1.65959 1.79772)">
<stop offset="0.0645976" stop-color="#DF8089"/>
<stop offset="1" stop-color="#DF8089" stop-opacity="0"/>
</radialGradient>
<radialGradient id="paint22_radial_15_770" cx="0" cy="0" r="1" gradientUnits="userSpaceOnUse" gradientTransform="translate(8.76563 15.0395) rotate(141.017) scale(1.40706 0.727129)">
<stop stop-color="#FFDE71"/>
<stop offset="1" stop-color="#FFDE71" stop-opacity="0"/>
</radialGradient>
<radialGradient id="paint23_radial_15_770" cx="0" cy="0" r="1" gradientUnits="userSpaceOnUse" gradientTransform="translate(8.01563 16.0139) rotate(180) scale(1.875 1.94872)">
<stop offset="0.487603" stop-color="#E1AD3D" stop-opacity="0"/>
<stop offset="1" stop-color="#B9894B"/>
</radialGradient>
<radialGradient id="paint24_radial_15_770" cx="0" cy="0" r="1" gradientUnits="userSpaceOnUse" gradientTransform="translate(14.7031 14.0126) rotate(136.302) scale(2.91757 3.03227)">
<stop offset="0.172433" stop-color="#E7C04E"/>
<stop offset="1" stop-color="#D9972A"/>
</radialGradient>
<radialGradient id="paint25_radial_15_770" cx="0" cy="0" r="1" gradientUnits="userSpaceOnUse" gradientTransform="translate(14.8125 14.0751) rotate(142.093) scale(1.38624 0.710131)">
<stop stop-color="#FFDE71"/>
<stop offset="1" stop-color="#FFDE71" stop-opacity="0"/>
</radialGradient>
<radialGradient id="paint26_radial_15_770" cx="0" cy="0" r="1" gradientUnits="userSpaceOnUse" gradientTransform="translate(13.5781 16.4344) rotate(-76.7989) scale(1.29998 1.7338)">
<stop stop-color="#E4A122"/>
<stop offset="1" stop-color="#E4A122" stop-opacity="0"/>
</radialGradient>
<radialGradient id="paint27_radial_15_770" cx="0" cy="0" r="1" gradientUnits="userSpaceOnUse" gradientTransform="translate(14.0625 15.0126) rotate(180) scale(1.875)">
<stop offset="0.487603" stop-color="#E1AD3D" stop-opacity="0"/>
<stop offset="1" stop-color="#B9894B"/>
</radialGradient>
<radialGradient id="paint28_radial_15_770" cx="0" cy="0" r="1" gradientUnits="userSpaceOnUse" gradientTransform="translate(27.4688 14.4657) rotate(136.32) scale(2.39817 2.49246)">
<stop offset="0.172433" stop-color="#F0C950"/>
<stop offset="1" stop-color="#C8861F"/>
</radialGradient>
<radialGradient id="paint29_radial_15_770" cx="0" cy="0" r="1" gradientUnits="userSpaceOnUse" gradientTransform="translate(27.6719 14.2001) rotate(147.14) scale(1.33929 0.68608)">
<stop offset="0.183948" stop-color="#FFDE71"/>
<stop offset="1" stop-color="#FFDE71" stop-opacity="0"/>
</radialGradient>
<radialGradient id="paint30_radial_15_770" cx="0" cy="0" r="1" gradientUnits="userSpaceOnUse" gradientTransform="translate(21.1251 25.5595) rotate(138.155) scale(2.81059)">
<stop stop-color="#5FBFFF"/>
<stop offset="1" stop-color="#3E94FF"/>
</radialGradient>
<linearGradient id="paint31_linear_15_770" x1="20.2109" y1="13.1532" x2="26.5547" y2="21.1532" gradientUnits="userSpaceOnUse">
<stop stop-color="#FFD678"/>
<stop offset="1" stop-color="#FFD678" stop-opacity="0"/>
</linearGradient>
<radialGradient id="paint32_radial_15_770" cx="0" cy="0" r="1" gradientUnits="userSpaceOnUse" gradientTransform="translate(26.5547 20.3719) rotate(-34.6679) scale(6.49725 1.74022)">
<stop offset="0.289296" stop-color="#FFD175"/>
<stop offset="1" stop-color="#FFD175" stop-opacity="0"/>
</radialGradient>
<radialGradient id="paint33_radial_15_770" cx="0" cy="0" r="1" gradientUnits="userSpaceOnUse" gradientTransform="translate(21.4375 10.6532) rotate(125.606) scale(3.43521 2.91657)">
<stop offset="0.376296" stop-color="#F3D154"/>
<stop offset="1" stop-color="#CC9848"/>
</radialGradient>
<radialGradient id="paint34_radial_15_770" cx="0" cy="0" r="1" gradientUnits="userSpaceOnUse" gradientTransform="translate(19.6562 13.4462) rotate(-79.3128) scale(1.83257 2.17841)">
<stop stop-color="#E78F5E"/>
<stop offset="1" stop-color="#E78F5E" stop-opacity="0"/>
</radialGradient>
<radialGradient id="paint35_radial_15_770" cx="0" cy="0" r="1" gradientUnits="userSpaceOnUse" gradientTransform="translate(20.75 12.2469) rotate(-146.725) scale(3.58831 4.29179)">
<stop offset="0.557117" stop-color="#E9C251" stop-opacity="0"/>
<stop offset="1" stop-color="#B49858"/>
</radialGradient>
<radialGradient id="paint36_radial_15_770" cx="0" cy="0" r="1" gradientUnits="userSpaceOnUse" gradientTransform="translate(22.0625 10.8407) rotate(156.06) scale(1.9831 1.52608)">
<stop stop-color="#FFED77"/>
<stop offset="1" stop-color="#FFED77" stop-opacity="0"/>
</radialGradient>
<radialGradient id="paint37_radial_15_770" cx="0" cy="0" r="1" gradientUnits="userSpaceOnUse" gradientTransform="translate(33.6563 14.9745) rotate(135.198) scale(2.97287 3.09287)">
<stop offset="0.172433" stop-color="#F8CB54"/>
<stop offset="1" stop-color="#EAA34B"/>
</radialGradient>
<radialGradient id="paint38_radial_15_770" cx="0" cy="0" r="1" gradientUnits="userSpaceOnUse" gradientTransform="translate(32.2187 17.4969) rotate(-71.3305) scale(1.65959 2.24326)">
<stop offset="0.159577" stop-color="#F1907C"/>
<stop offset="1" stop-color="#F1907C" stop-opacity="0"/>
</radialGradient>
<radialGradient id="paint39_radial_15_770" cx="0" cy="0" r="1" gradientUnits="userSpaceOnUse" gradientTransform="translate(33.7656 15.0395) rotate(141.017) scale(1.40706 0.727129)">
<stop stop-color="#FFDE71"/>
<stop offset="1" stop-color="#FFDE71" stop-opacity="0"/>
</radialGradient>
<radialGradient id="paint40_radial_15_770" cx="0" cy="0" r="1" gradientUnits="userSpaceOnUse" gradientTransform="translate(33.0156 16.0139) rotate(180) scale(1.875 1.94872)">
<stop offset="0.487603" stop-color="#E0A444" stop-opacity="0"/>
<stop offset="1" stop-color="#C6924D"/>
</radialGradient>
</defs>
</svg>
