<svg width="40" height="40" viewBox="0 0 40 40" fill="none" xmlns="http://www.w3.org/2000/svg">
<g filter="url(#filter0_i_15_686)">
<path d="M18.6717 14.17C18.9473 14.3891 19.4236 14.6516 20 14.6516C20.5764 14.6516 21.0527 14.3891 21.3282 14.17C21.3329 14.1664 21.3376 14.1634 21.3425 14.1611C21.3469 14.159 21.3512 14.1575 21.3558 14.1564L22.3111 13.3519C22.8746 12.8774 23.5875 12.6172 24.3241 12.6172H35.9765C36.7964 12.6172 37.461 13.2817 37.461 14.1015C37.461 14.338 37.4056 14.5615 37.3073 14.76C37.2565 14.8625 37.2009 14.9649 37.145 15.0676L37.1425 15.0721C36.9417 15.441 36.7383 15.8149 36.7383 16.2259V19.5899C36.7383 19.6151 36.7381 19.6402 36.7379 19.6655C36.4401 23.2919 33.4025 26.1422 29.6994 26.1422H28.3085C24.9045 26.1422 22.063 23.734 21.3948 20.5284C21.3509 20.2219 21.3281 19.9085 21.3281 19.5899V17.7051C21.3281 16.9716 20.7335 16.377 20 16.377C19.2665 16.377 18.6719 16.9716 18.6719 17.7051V19.5899C18.6719 19.9085 18.6491 20.2219 18.6052 20.5284C17.937 23.734 15.0955 26.1422 11.6915 26.1422H10.3007C6.59744 26.1422 3.55991 23.2919 3.26214 19.6655C3.26187 19.6402 3.26173 19.6151 3.26173 19.5899V16.2259C3.26173 15.8149 3.05816 15.4409 2.85751 15.0721L2.855 15.0676C2.79915 14.9649 2.74353 14.8625 2.69271 14.76C2.59438 14.5615 2.53906 14.338 2.53906 14.1015C2.53906 13.2817 3.20366 12.6172 4.02344 12.6172H15.6759C16.4125 12.6172 17.1254 12.8774 17.6889 13.3519L18.6442 14.1564C18.6477 14.1572 18.6513 14.1584 18.6545 14.1599L18.6575 14.1611C18.6624 14.1634 18.6671 14.1664 18.6717 14.17Z" fill="url(#paint0_linear_15_686)"/>
<path d="M18.6717 14.17C18.9473 14.3891 19.4236 14.6516 20 14.6516C20.5764 14.6516 21.0527 14.3891 21.3282 14.17C21.3329 14.1664 21.3376 14.1634 21.3425 14.1611C21.3469 14.159 21.3512 14.1575 21.3558 14.1564L22.3111 13.3519C22.8746 12.8774 23.5875 12.6172 24.3241 12.6172H35.9765C36.7964 12.6172 37.461 13.2817 37.461 14.1015C37.461 14.338 37.4056 14.5615 37.3073 14.76C37.2565 14.8625 37.2009 14.9649 37.145 15.0676L37.1425 15.0721C36.9417 15.441 36.7383 15.8149 36.7383 16.2259V19.5899C36.7383 19.6151 36.7381 19.6402 36.7379 19.6655C36.4401 23.2919 33.4025 26.1422 29.6994 26.1422H28.3085C24.9045 26.1422 22.063 23.734 21.3948 20.5284C21.3509 20.2219 21.3281 19.9085 21.3281 19.5899V17.7051C21.3281 16.9716 20.7335 16.377 20 16.377C19.2665 16.377 18.6719 16.9716 18.6719 17.7051V19.5899C18.6719 19.9085 18.6491 20.2219 18.6052 20.5284C17.937 23.734 15.0955 26.1422 11.6915 26.1422H10.3007C6.59744 26.1422 3.55991 23.2919 3.26214 19.6655C3.26187 19.6402 3.26173 19.6151 3.26173 19.5899V16.2259C3.26173 15.8149 3.05816 15.4409 2.85751 15.0721L2.855 15.0676C2.79915 14.9649 2.74353 14.8625 2.69271 14.76C2.59438 14.5615 2.53906 14.338 2.53906 14.1015C2.53906 13.2817 3.20366 12.6172 4.02344 12.6172H15.6759C16.4125 12.6172 17.1254 12.8774 17.6889 13.3519L18.6442 14.1564C18.6477 14.1572 18.6513 14.1584 18.6545 14.1599L18.6575 14.1611C18.6624 14.1634 18.6671 14.1664 18.6717 14.17Z" fill="url(#paint1_radial_15_686)"/>
</g>
<g filter="url(#filter1_f_15_686)">
<path d="M22.3709 16.8775C22.3709 15.1515 23.77 13.7525 25.4959 13.7525H32.5118C34.2376 13.7525 35.6368 15.1515 35.6368 16.8775V19.0798C35.6368 22.359 32.9784 25.0173 29.6993 25.0173H28.3084C25.0293 25.0173 22.3709 22.359 22.3709 19.0798V16.8775Z" fill="#403457"/>
<path d="M22.3709 16.8775C22.3709 15.1515 23.77 13.7525 25.4959 13.7525H32.5118C34.2376 13.7525 35.6368 15.1515 35.6368 16.8775V19.0798C35.6368 22.359 32.9784 25.0173 29.6993 25.0173H28.3084C25.0293 25.0173 22.3709 22.359 22.3709 19.0798V16.8775Z" stroke="#403457" stroke-width="0.2"/>
</g>
<g filter="url(#filter2_ii_15_686)">
<path d="M22.3709 16.8775C22.3709 15.1515 23.77 13.7525 25.4959 13.7525H32.5118C34.2376 13.7525 35.6368 15.1515 35.6368 16.8775V19.0798C35.6368 22.359 32.9784 25.0173 29.6993 25.0173H28.3084C25.0293 25.0173 22.3709 22.359 22.3709 19.0798V16.8775Z" fill="url(#paint2_radial_15_686)"/>
</g>
<g filter="url(#filter3_f_15_686)">
<path d="M4.3631 16.8775C4.3631 15.1515 5.76221 13.7525 7.4881 13.7525H14.5039C16.2299 13.7525 17.6289 15.1515 17.6289 16.8775V19.0798C17.6289 22.359 14.9706 25.0173 11.6914 25.0173H10.3006C7.0214 25.0173 4.3631 22.359 4.3631 19.0798V16.8775Z" fill="#403457"/>
<path d="M4.3631 16.8775C4.3631 15.1515 5.76221 13.7525 7.4881 13.7525H14.5039C16.2299 13.7525 17.6289 15.1515 17.6289 16.8775V19.0798C17.6289 22.359 14.9706 25.0173 11.6914 25.0173H10.3006C7.0214 25.0173 4.3631 22.359 4.3631 19.0798V16.8775Z" stroke="#403457" stroke-width="0.2"/>
</g>
<g filter="url(#filter4_ii_15_686)">
<path d="M4.3631 16.8775C4.3631 15.1515 5.76221 13.7525 7.4881 13.7525H14.5039C16.2299 13.7525 17.6289 15.1515 17.6289 16.8775V19.0798C17.6289 22.359 14.9706 25.0173 11.6914 25.0173H10.3006C7.0214 25.0173 4.3631 22.359 4.3631 19.0798V16.8775Z" fill="url(#paint3_radial_15_686)"/>
</g>
<g filter="url(#filter5_f_15_686)">
<path fill-rule="evenodd" clip-rule="evenodd" d="M7.53835 13.2165H14.4541C16.4956 13.2165 18.1505 14.8715 18.1505 16.913V19.084C18.1505 22.6566 15.2544 25.5529 11.6817 25.5529H10.3107C6.73806 25.5529 3.84186 22.6566 3.84186 19.084V16.913C3.84186 14.8715 5.49683 13.2165 7.53835 13.2165Z" stroke="url(#paint4_linear_15_686)" stroke-width="0.25"/>
<path fill-rule="evenodd" clip-rule="evenodd" d="M7.53835 13.2165H14.4541C16.4956 13.2165 18.1505 14.8715 18.1505 16.913V19.084C18.1505 22.6566 15.2544 25.5529 11.6817 25.5529H10.3107C6.73806 25.5529 3.84186 22.6566 3.84186 19.084V16.913C3.84186 14.8715 5.49683 13.2165 7.53835 13.2165Z" stroke="url(#paint5_linear_15_686)" stroke-width="0.25"/>
</g>
<g filter="url(#filter6_f_15_686)">
<path fill-rule="evenodd" clip-rule="evenodd" d="M25.7034 13.2165H32.619C34.6606 13.2165 36.3155 14.8715 36.3155 16.913V19.084C36.3155 22.6566 33.4194 25.5529 29.8466 25.5529H28.4757C24.903 25.5529 22.0069 22.6566 22.0069 19.084V16.913C22.0069 14.8715 23.6619 13.2165 25.7034 13.2165Z" stroke="url(#paint6_linear_15_686)" stroke-width="0.25"/>
<path fill-rule="evenodd" clip-rule="evenodd" d="M25.7034 13.2165H32.619C34.6606 13.2165 36.3155 14.8715 36.3155 16.913V19.084C36.3155 22.6566 33.4194 25.5529 29.8466 25.5529H28.4757C24.903 25.5529 22.0069 22.6566 22.0069 19.084V16.913C22.0069 14.8715 23.6619 13.2165 25.7034 13.2165Z" stroke="url(#paint7_linear_15_686)" stroke-width="0.25"/>
</g>
<path d="M15.7034 18.7637C16.4286 18.1762 16.4243 16.9688 15.6937 16.067C14.9631 15.1652 13.7829 14.9104 13.0576 15.498C12.3324 16.0856 12.3367 17.293 13.0673 18.1948C13.7979 19.0966 14.9781 19.3513 15.7034 18.7637Z" fill="url(#paint8_radial_15_686)"/>
<path d="M33.5549 18.9361C34.2801 18.3485 34.2758 17.1411 33.5452 16.2393C32.8146 15.3375 31.6344 15.0828 30.9091 15.6704C30.1839 16.258 30.1882 17.4654 30.9188 18.3672C31.6494 19.269 32.8296 19.5237 33.5549 18.9361Z" fill="url(#paint9_radial_15_686)"/>
<defs>
<filter id="filter0_i_15_686" x="2.53906" y="12.6172" width="35.1719" height="13.775" filterUnits="userSpaceOnUse" color-interpolation-filters="sRGB">
<feFlood flood-opacity="0" result="BackgroundImageFix"/>
<feBlend mode="normal" in="SourceGraphic" in2="BackgroundImageFix" result="shape"/>
<feColorMatrix in="SourceAlpha" type="matrix" values="0 0 0 0 0 0 0 0 0 0 0 0 0 0 0 0 0 0 127 0" result="hardAlpha"/>
<feOffset dx="0.25" dy="0.25"/>
<feGaussianBlur stdDeviation="0.25"/>
<feComposite in2="hardAlpha" operator="arithmetic" k2="-1" k3="1"/>
<feColorMatrix type="matrix" values="0 0 0 0 0.262745 0 0 0 0 0.188235 0 0 0 0 0.341176 0 0 0 1 0"/>
<feBlend mode="normal" in2="shape" result="effect1_innerShadow_15_686"/>
</filter>
<filter id="filter1_f_15_686" x="22.0209" y="13.4025" width="13.9659" height="11.9648" filterUnits="userSpaceOnUse" color-interpolation-filters="sRGB">
<feFlood flood-opacity="0" result="BackgroundImageFix"/>
<feBlend mode="normal" in="SourceGraphic" in2="BackgroundImageFix" result="shape"/>
<feGaussianBlur stdDeviation="0.125" result="effect1_foregroundBlur_15_686"/>
</filter>
<filter id="filter2_ii_15_686" x="22.2209" y="13.6025" width="13.6159" height="11.6148" filterUnits="userSpaceOnUse" color-interpolation-filters="sRGB">
<feFlood flood-opacity="0" result="BackgroundImageFix"/>
<feBlend mode="normal" in="SourceGraphic" in2="BackgroundImageFix" result="shape"/>
<feColorMatrix in="SourceAlpha" type="matrix" values="0 0 0 0 0 0 0 0 0 0 0 0 0 0 0 0 0 0 127 0" result="hardAlpha"/>
<feOffset dx="0.2" dy="0.2"/>
<feGaussianBlur stdDeviation="0.625"/>
<feComposite in2="hardAlpha" operator="arithmetic" k2="-1" k3="1"/>
<feColorMatrix type="matrix" values="0 0 0 0 0.141176 0 0 0 0 0.619608 0 0 0 0 0.992157 0 0 0 1 0"/>
<feBlend mode="normal" in2="shape" result="effect1_innerShadow_15_686"/>
<feColorMatrix in="SourceAlpha" type="matrix" values="0 0 0 0 0 0 0 0 0 0 0 0 0 0 0 0 0 0 127 0" result="hardAlpha"/>
<feOffset dx="-0.15" dy="-0.15"/>
<feGaussianBlur stdDeviation="0.15"/>
<feComposite in2="hardAlpha" operator="arithmetic" k2="-1" k3="1"/>
<feColorMatrix type="matrix" values="0 0 0 0 0.376471 0 0 0 0 0.807843 0 0 0 0 1 0 0 0 1 0"/>
<feBlend mode="normal" in2="effect1_innerShadow_15_686" result="effect2_innerShadow_15_686"/>
</filter>
<filter id="filter3_f_15_686" x="4.01309" y="13.4025" width="13.9658" height="11.9648" filterUnits="userSpaceOnUse" color-interpolation-filters="sRGB">
<feFlood flood-opacity="0" result="BackgroundImageFix"/>
<feBlend mode="normal" in="SourceGraphic" in2="BackgroundImageFix" result="shape"/>
<feGaussianBlur stdDeviation="0.125" result="effect1_foregroundBlur_15_686"/>
</filter>
<filter id="filter4_ii_15_686" x="4.2131" y="13.6025" width="13.6158" height="11.6148" filterUnits="userSpaceOnUse" color-interpolation-filters="sRGB">
<feFlood flood-opacity="0" result="BackgroundImageFix"/>
<feBlend mode="normal" in="SourceGraphic" in2="BackgroundImageFix" result="shape"/>
<feColorMatrix in="SourceAlpha" type="matrix" values="0 0 0 0 0 0 0 0 0 0 0 0 0 0 0 0 0 0 127 0" result="hardAlpha"/>
<feOffset dx="0.2" dy="0.2"/>
<feGaussianBlur stdDeviation="0.625"/>
<feComposite in2="hardAlpha" operator="arithmetic" k2="-1" k3="1"/>
<feColorMatrix type="matrix" values="0 0 0 0 0.141176 0 0 0 0 0.619608 0 0 0 0 0.992157 0 0 0 1 0"/>
<feBlend mode="normal" in2="shape" result="effect1_innerShadow_15_686"/>
<feColorMatrix in="SourceAlpha" type="matrix" values="0 0 0 0 0 0 0 0 0 0 0 0 0 0 0 0 0 0 127 0" result="hardAlpha"/>
<feOffset dx="-0.15" dy="-0.15"/>
<feGaussianBlur stdDeviation="0.15"/>
<feComposite in2="hardAlpha" operator="arithmetic" k2="-1" k3="1"/>
<feColorMatrix type="matrix" values="0 0 0 0 0.376471 0 0 0 0 0.807843 0 0 0 0 1 0 0 0 1 0"/>
<feBlend mode="normal" in2="effect1_innerShadow_15_686" result="effect2_innerShadow_15_686"/>
</filter>
<filter id="filter5_f_15_686" x="3.46686" y="12.8415" width="15.0586" height="13.0864" filterUnits="userSpaceOnUse" color-interpolation-filters="sRGB">
<feFlood flood-opacity="0" result="BackgroundImageFix"/>
<feBlend mode="normal" in="SourceGraphic" in2="BackgroundImageFix" result="shape"/>
<feGaussianBlur stdDeviation="0.125" result="effect1_foregroundBlur_15_686"/>
</filter>
<filter id="filter6_f_15_686" x="21.6319" y="12.8415" width="15.0586" height="13.0864" filterUnits="userSpaceOnUse" color-interpolation-filters="sRGB">
<feFlood flood-opacity="0" result="BackgroundImageFix"/>
<feBlend mode="normal" in="SourceGraphic" in2="BackgroundImageFix" result="shape"/>
<feGaussianBlur stdDeviation="0.125" result="effect1_foregroundBlur_15_686"/>
</filter>
<linearGradient id="paint0_linear_15_686" x1="20" y1="13.3202" x2="20" y2="26.1524" gradientUnits="userSpaceOnUse">
<stop offset="0.219178" stop-color="#57357A"/>
<stop offset="1" stop-color="#391E54"/>
</linearGradient>
<radialGradient id="paint1_radial_15_686" cx="0" cy="0" r="1" gradientUnits="userSpaceOnUse" gradientTransform="translate(2.40235 13.6132) rotate(19.3231) scale(1.59367 3.06337)">
<stop stop-color="#6C5484"/>
<stop offset="1" stop-color="#6C5484" stop-opacity="0"/>
</radialGradient>
<radialGradient id="paint2_radial_15_686" cx="0" cy="0" r="1" gradientUnits="userSpaceOnUse" gradientTransform="translate(32.3828 21.5235) rotate(-140.059) scale(8.45746 8.70409)">
<stop offset="0.176974" stop-color="#7FE8FF"/>
<stop offset="1" stop-color="#56C1FF"/>
</radialGradient>
<radialGradient id="paint3_radial_15_686" cx="0" cy="0" r="1" gradientUnits="userSpaceOnUse" gradientTransform="translate(14.3749 21.5235) rotate(-140.059) scale(8.45746 8.70409)">
<stop offset="0.176974" stop-color="#7FE8FF"/>
<stop offset="1" stop-color="#56C1FF"/>
</radialGradient>
<linearGradient id="paint4_linear_15_686" x1="5.50871" y1="23.2774" x2="16.2604" y2="15.815" gradientUnits="userSpaceOnUse">
<stop stop-color="#53406A"/>
<stop offset="1" stop-color="#53406A" stop-opacity="0"/>
</linearGradient>
<linearGradient id="paint5_linear_15_686" x1="18.4206" y1="19.5708" x2="13.7075" y2="19.5708" gradientUnits="userSpaceOnUse">
<stop stop-color="#5D4279"/>
<stop offset="1" stop-color="#5D4279" stop-opacity="0"/>
</linearGradient>
<linearGradient id="paint6_linear_15_686" x1="23.6737" y1="23.2774" x2="34.4254" y2="15.815" gradientUnits="userSpaceOnUse">
<stop stop-color="#53406A"/>
<stop offset="1" stop-color="#53406A" stop-opacity="0"/>
</linearGradient>
<linearGradient id="paint7_linear_15_686" x1="36.5856" y1="19.5708" x2="31.8725" y2="19.5708" gradientUnits="userSpaceOnUse">
<stop stop-color="#5D4279"/>
<stop offset="1" stop-color="#5D4279" stop-opacity="0"/>
</linearGradient>
<radialGradient id="paint8_radial_15_686" cx="0" cy="0" r="1" gradientUnits="userSpaceOnUse" gradientTransform="translate(14.6875 19.5702) rotate(-123.84) scale(4.1386 4.38037)">
<stop offset="0.191626" stop-color="#FAFFFF" stop-opacity="0"/>
<stop offset="1" stop-color="#FAFFFF"/>
</radialGradient>
<radialGradient id="paint9_radial_15_686" cx="0" cy="0" r="1" gradientUnits="userSpaceOnUse" gradientTransform="translate(32.5392 19.7426) rotate(-123.84) scale(4.1386 4.38037)">
<stop offset="0.191626" stop-color="#FAFFFF" stop-opacity="0"/>
<stop offset="1" stop-color="#FAFFFF"/>
</radialGradient>
</defs>
</svg>
