<svg width="40" height="40" viewBox="0 0 40 40" fill="none" xmlns="http://www.w3.org/2000/svg">
<g clip-path="url(#clip0_15_711)">
<g filter="url(#filter0_f_15_711)">
<circle cx="19.7472" cy="19.2527" r="10.0043" transform="rotate(15 19.7472 19.2527)" fill="white"/>
</g>
<g filter="url(#filter1_i_15_711)">
<path d="M8.71558 17.1332H31.0437V22.12C31.0437 26.2622 27.6858 26.2855 23.5437 26.2855H16.2156C12.0734 26.2855 8.71558 26.2622 8.71558 22.12V17.1332Z" fill="url(#paint0_linear_15_711)"/>
</g>
<g filter="url(#filter2_ii_15_711)">
<path d="M19.2889 23.519L6.59963 17.0374C5.79912 16.6285 5.8004 15.4842 6.60183 15.0771L19.2903 8.63181C19.6606 8.44369 20.0985 8.44387 20.4687 8.63229L33.1582 15.0911C33.9593 15.4989 33.9596 16.6432 33.1588 17.0515L20.4706 23.5195C20.0994 23.7087 19.6599 23.7085 19.2889 23.519Z" fill="url(#paint1_linear_15_711)"/>
</g>
<g filter="url(#filter3_f_15_711)">
<path d="M20.4187 22.3832L32.8875 15.7894" stroke="url(#paint2_linear_15_711)" stroke-width="0.7" stroke-linecap="round"/>
</g>
<g filter="url(#filter4_f_15_711)">
<path d="M27.1374 20.4448L25.7301 21.1622V20.6622C25.7301 19.995 25.643 19.4936 24.7853 19.081L19.2118 16.1673C18.8638 15.9854 18.7256 15.5488 18.903 15.1921C19.0804 14.8354 19.5063 14.6937 19.8543 14.8756L25.4278 17.7892C26.418 18.3069 27.0634 19.3185 27.1374 20.4448Z" fill="url(#paint3_linear_15_711)"/>
</g>
<g filter="url(#filter5_f_15_711)">
<path d="M27.646 19.8617L26.2387 20.5791V20.0791C26.2387 19.4119 26.1516 18.9105 25.2938 18.4978L19.7203 15.5842C19.3724 15.4023 19.2341 14.9656 19.4116 14.6089C19.589 14.2522 20.0149 14.1105 20.3628 14.2924L25.9364 17.2061C26.9265 17.7237 27.5719 18.7353 27.646 19.8617Z" fill="url(#paint4_linear_15_711)"/>
</g>
<g filter="url(#filter6_i_15_711)">
<path fill-rule="evenodd" clip-rule="evenodd" d="M19.4135 14.2883C19.5954 13.9316 20.032 13.7898 20.3887 13.9717L26.1026 16.8854C27.1826 17.4362 27.8625 18.5461 27.8625 19.7584V25.602C27.8625 26.0024 27.5379 26.327 27.1375 26.327C26.7371 26.327 26.4125 26.0024 26.4125 25.602V19.7584C26.4125 19.0912 26.0383 18.4803 25.4439 18.1772L19.73 15.2635C19.3733 15.0816 19.2316 14.645 19.4135 14.2883Z" fill="url(#paint5_linear_15_711)"/>
</g>
<path fill-rule="evenodd" clip-rule="evenodd" d="M19.4135 14.2883C19.5954 13.9316 20.032 13.7898 20.3887 13.9717L26.1026 16.8854C27.1826 17.4362 27.8625 18.5461 27.8625 19.7584V25.602C27.8625 26.0024 27.5379 26.327 27.1375 26.327C26.7371 26.327 26.4125 26.0024 26.4125 25.602V19.7584C26.4125 19.0912 26.0383 18.4803 25.4439 18.1772L19.73 15.2635C19.3733 15.0816 19.2316 14.645 19.4135 14.2883Z" fill="url(#paint6_radial_15_711)"/>
<path fill-rule="evenodd" clip-rule="evenodd" d="M19.4135 14.2883C19.5954 13.9316 20.032 13.7898 20.3887 13.9717L26.1026 16.8854C27.1826 17.4362 27.8625 18.5461 27.8625 19.7584V25.602C27.8625 26.0024 27.5379 26.327 27.1375 26.327C26.7371 26.327 26.4125 26.0024 26.4125 25.602V19.7584C26.4125 19.0912 26.0383 18.4803 25.4439 18.1772L19.73 15.2635C19.3733 15.0816 19.2316 14.645 19.4135 14.2883Z" fill="url(#paint7_linear_15_711)"/>
<path fill-rule="evenodd" clip-rule="evenodd" d="M19.4135 14.2883C19.5954 13.9316 20.032 13.7898 20.3887 13.9717L26.1026 16.8854C27.1826 17.4362 27.8625 18.5461 27.8625 19.7584V25.602C27.8625 26.0024 27.5379 26.327 27.1375 26.327C26.7371 26.327 26.4125 26.0024 26.4125 25.602V19.7584C26.4125 19.0912 26.0383 18.4803 25.4439 18.1772L19.73 15.2635C19.3733 15.0816 19.2316 14.645 19.4135 14.2883Z" fill="url(#paint8_linear_15_711)"/>
<path d="M26.4187 25.5941C25.7703 25.8597 25.4695 26.4171 25.4695 27.0238C25.4695 27.945 26.2163 28.6918 27.1375 28.6918C28.0586 28.6918 28.8054 27.945 28.8054 27.0238C28.8054 26.4171 28.45 25.8754 27.864 25.5941H26.4187Z" fill="url(#paint9_radial_15_711)"/>
<path d="M26.4187 25.5941C25.7703 25.8597 25.4695 26.4171 25.4695 27.0238C25.4695 27.945 26.2163 28.6918 27.1375 28.6918C28.0586 28.6918 28.8054 27.945 28.8054 27.0238C28.8054 26.4171 28.45 25.8754 27.864 25.5941H26.4187Z" fill="url(#paint10_radial_15_711)"/>
<path d="M26.4187 25.5941C25.7703 25.8597 25.4695 26.4171 25.4695 27.0238C25.4695 27.945 26.2163 28.6918 27.1375 28.6918C28.0586 28.6918 28.8054 27.945 28.8054 27.0238C28.8054 26.4171 28.45 25.8754 27.864 25.5941H26.4187Z" fill="url(#paint11_radial_15_711)"/>
<path d="M25.2256 30.7667L25.864 28.1176H28.3914L29.0425 30.7439C29.0991 30.9287 29.1296 31.1251 29.1296 31.3285C29.1296 32.4288 28.2377 33.3207 27.1375 33.3207C26.0372 33.3207 25.1453 32.4288 25.1453 31.3285C25.1453 31.1334 25.1733 30.9448 25.2256 30.7667Z" fill="#FF9D4E"/>
<path d="M25.2256 30.7667L25.864 28.1176H28.3914L29.0425 30.7439C29.0991 30.9287 29.1296 31.1251 29.1296 31.3285C29.1296 32.4288 28.2377 33.3207 27.1375 33.3207C26.0372 33.3207 25.1453 32.4288 25.1453 31.3285C25.1453 31.1334 25.1733 30.9448 25.2256 30.7667Z" fill="url(#paint12_linear_15_711)"/>
<path d="M25.2256 30.7667L25.864 28.1176H28.3914L29.0425 30.7439C29.0991 30.9287 29.1296 31.1251 29.1296 31.3285C29.1296 32.4288 28.2377 33.3207 27.1375 33.3207C26.0372 33.3207 25.1453 32.4288 25.1453 31.3285C25.1453 31.1334 25.1733 30.9448 25.2256 30.7667Z" fill="url(#paint13_radial_15_711)"/>
<path d="M25.2256 30.7667L25.864 28.1176H28.3914L29.0425 30.7439C29.0991 30.9287 29.1296 31.1251 29.1296 31.3285C29.1296 32.4288 28.2377 33.3207 27.1375 33.3207C26.0372 33.3207 25.1453 32.4288 25.1453 31.3285C25.1453 31.1334 25.1733 30.9448 25.2256 30.7667Z" fill="url(#paint14_radial_15_711)"/>
</g>
<defs>
<filter id="filter0_f_15_711" x="-10.2596" y="-10.7541" width="60.0136" height="60.0136" filterUnits="userSpaceOnUse" color-interpolation-filters="sRGB">
<feFlood flood-opacity="0" result="BackgroundImageFix"/>
<feBlend mode="normal" in="SourceGraphic" in2="BackgroundImageFix" result="shape"/>
<feGaussianBlur stdDeviation="10" result="effect1_foregroundBlur_15_711"/>
</filter>
<filter id="filter1_i_15_711" x="8.46558" y="16.8832" width="22.5781" height="9.4023" filterUnits="userSpaceOnUse" color-interpolation-filters="sRGB">
<feFlood flood-opacity="0" result="BackgroundImageFix"/>
<feBlend mode="normal" in="SourceGraphic" in2="BackgroundImageFix" result="shape"/>
<feColorMatrix in="SourceAlpha" type="matrix" values="0 0 0 0 0 0 0 0 0 0 0 0 0 0 0 0 0 0 127 0" result="hardAlpha"/>
<feOffset dx="-0.25" dy="-0.25"/>
<feGaussianBlur stdDeviation="0.25"/>
<feComposite in2="hardAlpha" operator="arithmetic" k2="-1" k3="1"/>
<feColorMatrix type="matrix" values="0 0 0 0 0.470588 0 0 0 0 0.372549 0 0 0 0 0.658824 0 0 0 1 0"/>
<feBlend mode="normal" in2="shape" result="effect1_innerShadow_15_711"/>
</filter>
<filter id="filter2_ii_15_711" x="5" y="7.74084" width="28.7592" height="15.9204" filterUnits="userSpaceOnUse" color-interpolation-filters="sRGB">
<feFlood flood-opacity="0" result="BackgroundImageFix"/>
<feBlend mode="normal" in="SourceGraphic" in2="BackgroundImageFix" result="shape"/>
<feColorMatrix in="SourceAlpha" type="matrix" values="0 0 0 0 0 0 0 0 0 0 0 0 0 0 0 0 0 0 127 0" result="hardAlpha"/>
<feOffset dy="-1.25"/>
<feGaussianBlur stdDeviation="0.375"/>
<feComposite in2="hardAlpha" operator="arithmetic" k2="-1" k3="1"/>
<feColorMatrix type="matrix" values="0 0 0 0 0.133333 0 0 0 0 0.0980392 0 0 0 0 0.176471 0 0 0 1 0"/>
<feBlend mode="normal" in2="shape" result="effect1_innerShadow_15_711"/>
<feColorMatrix in="SourceAlpha" type="matrix" values="0 0 0 0 0 0 0 0 0 0 0 0 0 0 0 0 0 0 127 0" result="hardAlpha"/>
<feOffset dx="-1" dy="-0.5"/>
<feGaussianBlur stdDeviation="0.5"/>
<feComposite in2="hardAlpha" operator="arithmetic" k2="-1" k3="1"/>
<feColorMatrix type="matrix" values="0 0 0 0 0.372549 0 0 0 0 0.254902 0 0 0 0 0.501961 0 0 0 1 0"/>
<feBlend mode="normal" in2="effect1_innerShadow_15_711" result="effect2_innerShadow_15_711"/>
</filter>
<filter id="filter3_f_15_711" x="19.5686" y="14.9394" width="14.1689" height="8.29395" filterUnits="userSpaceOnUse" color-interpolation-filters="sRGB">
<feFlood flood-opacity="0" result="BackgroundImageFix"/>
<feBlend mode="normal" in="SourceGraphic" in2="BackgroundImageFix" result="shape"/>
<feGaussianBlur stdDeviation="0.25" result="effect1_foregroundBlur_15_711"/>
</filter>
<filter id="filter4_f_15_711" x="18.3257" y="14.2963" width="9.31171" height="7.36589" filterUnits="userSpaceOnUse" color-interpolation-filters="sRGB">
<feFlood flood-opacity="0" result="BackgroundImageFix"/>
<feBlend mode="normal" in="SourceGraphic" in2="BackgroundImageFix" result="shape"/>
<feGaussianBlur stdDeviation="0.25" result="effect1_foregroundBlur_15_711"/>
</filter>
<filter id="filter5_f_15_711" x="18.9342" y="13.8131" width="9.11177" height="7.16598" filterUnits="userSpaceOnUse" color-interpolation-filters="sRGB">
<feFlood flood-opacity="0" result="BackgroundImageFix"/>
<feBlend mode="normal" in="SourceGraphic" in2="BackgroundImageFix" result="shape"/>
<feGaussianBlur stdDeviation="0.2" result="effect1_foregroundBlur_15_711"/>
</filter>
<filter id="filter6_i_15_711" x="19.3342" y="13.8925" width="8.92829" height="12.5846" filterUnits="userSpaceOnUse" color-interpolation-filters="sRGB">
<feFlood flood-opacity="0" result="BackgroundImageFix"/>
<feBlend mode="normal" in="SourceGraphic" in2="BackgroundImageFix" result="shape"/>
<feColorMatrix in="SourceAlpha" type="matrix" values="0 0 0 0 0 0 0 0 0 0 0 0 0 0 0 0 0 0 127 0" result="hardAlpha"/>
<feOffset dx="0.4" dy="0.15"/>
<feGaussianBlur stdDeviation="0.325"/>
<feComposite in2="hardAlpha" operator="arithmetic" k2="-1" k3="1"/>
<feColorMatrix type="matrix" values="0 0 0 0 0.8 0 0 0 0 0.458824 0 0 0 0 0.227451 0 0 0 1 0"/>
<feBlend mode="normal" in2="shape" result="effect1_innerShadow_15_711"/>
</filter>
<linearGradient id="paint0_linear_15_711" x1="29.95" y1="21.7094" x2="9.94995" y2="21.7094" gradientUnits="userSpaceOnUse">
<stop stop-color="#68518B"/>
<stop offset="0.44375" stop-color="#503678"/>
<stop offset="0.909375" stop-color="#35254E"/>
</linearGradient>
<linearGradient id="paint1_linear_15_711" x1="32.1921" y1="16.0761" x2="11.2624" y2="16.0761" gradientUnits="userSpaceOnUse">
<stop stop-color="#655676"/>
<stop offset="1" stop-color="#2D2635"/>
</linearGradient>
<linearGradient id="paint2_linear_15_711" x1="21.7625" y1="22.3832" x2="33.95" y2="15.3832" gradientUnits="userSpaceOnUse">
<stop stop-color="#6E5F85"/>
<stop offset="1" stop-color="#9A8DA7"/>
</linearGradient>
<linearGradient id="paint3_linear_15_711" x1="21.4429" y1="16.3302" x2="27.8572" y2="21.5782" gradientUnits="userSpaceOnUse">
<stop stop-color="#3C2D42"/>
<stop offset="1" stop-color="#3D2C43" stop-opacity="0"/>
</linearGradient>
<linearGradient id="paint4_linear_15_711" x1="21.0348" y1="15.8054" x2="26.0787" y2="20.2662" gradientUnits="userSpaceOnUse">
<stop stop-color="#2C1A20"/>
<stop offset="1" stop-color="#4C2350"/>
</linearGradient>
<linearGradient id="paint5_linear_15_711" x1="21.2625" y1="14.3832" x2="27.3875" y2="26.327" gradientUnits="userSpaceOnUse">
<stop stop-color="#D3A543"/>
<stop offset="1" stop-color="#FFBA62"/>
</linearGradient>
<radialGradient id="paint6_radial_15_711" cx="0" cy="0" r="1" gradientUnits="userSpaceOnUse" gradientTransform="translate(19.6842 13.5833) rotate(26.9588) scale(3.89487 2.42803)">
<stop stop-color="#D0A745"/>
<stop offset="1" stop-color="#D0A745" stop-opacity="0"/>
</radialGradient>
<linearGradient id="paint7_linear_15_711" x1="28.2735" y1="21.3346" x2="27.0764" y2="21.4244" gradientUnits="userSpaceOnUse">
<stop stop-color="#FFD574"/>
<stop offset="1" stop-color="#FFD574" stop-opacity="0"/>
</linearGradient>
<linearGradient id="paint8_linear_15_711" x1="26.0887" y1="16.4414" x2="25.6249" y2="17.3243" gradientUnits="userSpaceOnUse">
<stop stop-color="#FFD574"/>
<stop offset="1" stop-color="#FFD574" stop-opacity="0"/>
</linearGradient>
<radialGradient id="paint9_radial_15_711" cx="0" cy="0" r="1" gradientUnits="userSpaceOnUse" gradientTransform="translate(28.1538 26.5121) rotate(137.337) scale(2.07561 2.23528)">
<stop stop-color="#FFCC6C"/>
<stop offset="1" stop-color="#F49041"/>
</radialGradient>
<radialGradient id="paint10_radial_15_711" cx="0" cy="0" r="1" gradientUnits="userSpaceOnUse" gradientTransform="translate(28.4403 27.4093) rotate(-157.449) scale(3.7252 2.99627)">
<stop offset="0.6" stop-color="#B25D41" stop-opacity="0"/>
<stop offset="0.910505" stop-color="#B25D41"/>
</radialGradient>
<radialGradient id="paint11_radial_15_711" cx="0" cy="0" r="1" gradientUnits="userSpaceOnUse" gradientTransform="translate(25.8454 28.1965) rotate(-8.85796) scale(2.27208 1.10448)">
<stop stop-color="#FD805E"/>
<stop offset="1" stop-color="#FD805E" stop-opacity="0"/>
</radialGradient>
<linearGradient id="paint12_linear_15_711" x1="25.3498" y1="30.7191" x2="26.8659" y2="30.9663" gradientUnits="userSpaceOnUse">
<stop stop-color="#D17047"/>
<stop offset="1" stop-color="#D17047" stop-opacity="0"/>
</linearGradient>
<radialGradient id="paint13_radial_15_711" cx="0" cy="0" r="1" gradientUnits="userSpaceOnUse" gradientTransform="translate(28.0904 27.8466) rotate(90) scale(4.37335 1.34116)">
<stop offset="0.566667" stop-color="#FFBC6E"/>
<stop offset="1" stop-color="#FFBC6E" stop-opacity="0"/>
</radialGradient>
<radialGradient id="paint14_radial_15_711" cx="0" cy="0" r="1" gradientUnits="userSpaceOnUse" gradientTransform="translate(26.3994 33.3207) rotate(-77.3666) scale(2.66611 3.07857)">
<stop offset="0.165333" stop-color="#FF697E"/>
<stop offset="1" stop-color="#FF697E" stop-opacity="0"/>
</radialGradient>
<clipPath id="clip0_15_711">
<path d="M0 4C0 1.79086 1.79086 0 4 0H36C38.2091 0 40 1.79086 40 4V36C40 38.2091 38.2091 40 36 40H4C1.79086 40 0 38.2091 0 36V4Z" fill="white"/>
</clipPath>
</defs>
</svg>
