<svg width="40" height="40" viewBox="0 0 40 40" fill="none" xmlns="http://www.w3.org/2000/svg">
<g filter="url(#filter0_i_15_736)">
<path d="M12.9281 11.1956C10.2362 13.2712 9.88091 15.5607 9.92618 16.9851C9.99924 18.2719 10.1607 19.1663 10.2887 19.8749L10.3021 19.9489C10.4524 20.7829 10.1176 21.5952 9.49683 22.1096L8.85076 22.6448C8.80639 22.6815 8.79267 22.7438 8.81749 22.7958L10.0361 25.3501L8.44705 26.1082L7.2284 23.554C6.85616 22.7738 7.06183 21.8404 7.7275 21.289L8.37358 20.7537C8.53727 20.6181 8.5997 20.4299 8.56931 20.2612L8.55508 20.1826C8.4947 19.8482 8.19887 17.8083 8.18076 17.0441C8.15427 15.9266 8.22559 12.7721 10.5307 10.103C13.2189 6.99039 17.4713 6 19.9551 6C22.604 6 26.7814 6.99039 29.4696 10.103C31.7747 12.7721 31.8461 15.9266 31.8196 17.0441C31.8576 17.7562 31.5056 19.8482 31.4452 20.1826L31.4311 20.2612C31.4007 20.4299 31.4631 20.6181 31.6267 20.7537L32.2729 21.289C32.9385 21.8404 33.1442 22.7738 32.7719 23.554L31.5533 26.1082L29.9642 25.3501L31.1828 22.7958C31.2077 22.7438 31.1939 22.6815 31.1495 22.6448L30.5035 22.1096C29.8827 21.5952 29.5479 20.7829 29.6982 19.9489L29.7116 19.8749C29.8396 19.1663 30.0011 18.272 30.0741 16.9853C30.1194 15.5608 29.7642 13.2712 27.0723 11.1956C24.2448 9.01545 21.1734 8.83755 19.9551 8.83755C18.7368 8.83755 15.7555 9.01545 12.9281 11.1956Z" fill="url(#paint0_radial_15_736)"/>
<path d="M12.9281 11.1956C10.2362 13.2712 9.88091 15.5607 9.92618 16.9851C9.99924 18.2719 10.1607 19.1663 10.2887 19.8749L10.3021 19.9489C10.4524 20.7829 10.1176 21.5952 9.49683 22.1096L8.85076 22.6448C8.80639 22.6815 8.79267 22.7438 8.81749 22.7958L10.0361 25.3501L8.44705 26.1082L7.2284 23.554C6.85616 22.7738 7.06183 21.8404 7.7275 21.289L8.37358 20.7537C8.53727 20.6181 8.5997 20.4299 8.56931 20.2612L8.55508 20.1826C8.4947 19.8482 8.19887 17.8083 8.18076 17.0441C8.15427 15.9266 8.22559 12.7721 10.5307 10.103C13.2189 6.99039 17.4713 6 19.9551 6C22.604 6 26.7814 6.99039 29.4696 10.103C31.7747 12.7721 31.8461 15.9266 31.8196 17.0441C31.8576 17.7562 31.5056 19.8482 31.4452 20.1826L31.4311 20.2612C31.4007 20.4299 31.4631 20.6181 31.6267 20.7537L32.2729 21.289C32.9385 21.8404 33.1442 22.7738 32.7719 23.554L31.5533 26.1082L29.9642 25.3501L31.1828 22.7958C31.2077 22.7438 31.1939 22.6815 31.1495 22.6448L30.5035 22.1096C29.8827 21.5952 29.5479 20.7829 29.6982 19.9489L29.7116 19.8749C29.8396 19.1663 30.0011 18.272 30.0741 16.9853C30.1194 15.5608 29.7642 13.2712 27.0723 11.1956C24.2448 9.01545 21.1734 8.83755 19.9551 8.83755C18.7368 8.83755 15.7555 9.01545 12.9281 11.1956Z" fill="url(#paint1_radial_15_736)"/>
<path d="M12.9281 11.1956C10.2362 13.2712 9.88091 15.5607 9.92618 16.9851C9.99924 18.2719 10.1607 19.1663 10.2887 19.8749L10.3021 19.9489C10.4524 20.7829 10.1176 21.5952 9.49683 22.1096L8.85076 22.6448C8.80639 22.6815 8.79267 22.7438 8.81749 22.7958L10.0361 25.3501L8.44705 26.1082L7.2284 23.554C6.85616 22.7738 7.06183 21.8404 7.7275 21.289L8.37358 20.7537C8.53727 20.6181 8.5997 20.4299 8.56931 20.2612L8.55508 20.1826C8.4947 19.8482 8.19887 17.8083 8.18076 17.0441C8.15427 15.9266 8.22559 12.7721 10.5307 10.103C13.2189 6.99039 17.4713 6 19.9551 6C22.604 6 26.7814 6.99039 29.4696 10.103C31.7747 12.7721 31.8461 15.9266 31.8196 17.0441C31.8576 17.7562 31.5056 19.8482 31.4452 20.1826L31.4311 20.2612C31.4007 20.4299 31.4631 20.6181 31.6267 20.7537L32.2729 21.289C32.9385 21.8404 33.1442 22.7738 32.7719 23.554L31.5533 26.1082L29.9642 25.3501L31.1828 22.7958C31.2077 22.7438 31.1939 22.6815 31.1495 22.6448L30.5035 22.1096C29.8827 21.5952 29.5479 20.7829 29.6982 19.9489L29.7116 19.8749C29.8396 19.1663 30.0011 18.272 30.0741 16.9853C30.1194 15.5608 29.7642 13.2712 27.0723 11.1956C24.2448 9.01545 21.1734 8.83755 19.9551 8.83755C18.7368 8.83755 15.7555 9.01545 12.9281 11.1956Z" fill="url(#paint2_radial_15_736)"/>
<path d="M12.9281 11.1956C10.2362 13.2712 9.88091 15.5607 9.92618 16.9851C9.99924 18.2719 10.1607 19.1663 10.2887 19.8749L10.3021 19.9489C10.4524 20.7829 10.1176 21.5952 9.49683 22.1096L8.85076 22.6448C8.80639 22.6815 8.79267 22.7438 8.81749 22.7958L10.0361 25.3501L8.44705 26.1082L7.2284 23.554C6.85616 22.7738 7.06183 21.8404 7.7275 21.289L8.37358 20.7537C8.53727 20.6181 8.5997 20.4299 8.56931 20.2612L8.55508 20.1826C8.4947 19.8482 8.19887 17.8083 8.18076 17.0441C8.15427 15.9266 8.22559 12.7721 10.5307 10.103C13.2189 6.99039 17.4713 6 19.9551 6C22.604 6 26.7814 6.99039 29.4696 10.103C31.7747 12.7721 31.8461 15.9266 31.8196 17.0441C31.8576 17.7562 31.5056 19.8482 31.4452 20.1826L31.4311 20.2612C31.4007 20.4299 31.4631 20.6181 31.6267 20.7537L32.2729 21.289C32.9385 21.8404 33.1442 22.7738 32.7719 23.554L31.5533 26.1082L29.9642 25.3501L31.1828 22.7958C31.2077 22.7438 31.1939 22.6815 31.1495 22.6448L30.5035 22.1096C29.8827 21.5952 29.5479 20.7829 29.6982 19.9489L29.7116 19.8749C29.8396 19.1663 30.0011 18.272 30.0741 16.9853C30.1194 15.5608 29.7642 13.2712 27.0723 11.1956C24.2448 9.01545 21.1734 8.83755 19.9551 8.83755C18.7368 8.83755 15.7555 9.01545 12.9281 11.1956Z" fill="url(#paint3_radial_15_736)"/>
<path d="M12.9281 11.1956C10.2362 13.2712 9.88091 15.5607 9.92618 16.9851C9.99924 18.2719 10.1607 19.1663 10.2887 19.8749L10.3021 19.9489C10.4524 20.7829 10.1176 21.5952 9.49683 22.1096L8.85076 22.6448C8.80639 22.6815 8.79267 22.7438 8.81749 22.7958L10.0361 25.3501L8.44705 26.1082L7.2284 23.554C6.85616 22.7738 7.06183 21.8404 7.7275 21.289L8.37358 20.7537C8.53727 20.6181 8.5997 20.4299 8.56931 20.2612L8.55508 20.1826C8.4947 19.8482 8.19887 17.8083 8.18076 17.0441C8.15427 15.9266 8.22559 12.7721 10.5307 10.103C13.2189 6.99039 17.4713 6 19.9551 6C22.604 6 26.7814 6.99039 29.4696 10.103C31.7747 12.7721 31.8461 15.9266 31.8196 17.0441C31.8576 17.7562 31.5056 19.8482 31.4452 20.1826L31.4311 20.2612C31.4007 20.4299 31.4631 20.6181 31.6267 20.7537L32.2729 21.289C32.9385 21.8404 33.1442 22.7738 32.7719 23.554L31.5533 26.1082L29.9642 25.3501L31.1828 22.7958C31.2077 22.7438 31.1939 22.6815 31.1495 22.6448L30.5035 22.1096C29.8827 21.5952 29.5479 20.7829 29.6982 19.9489L29.7116 19.8749C29.8396 19.1663 30.0011 18.272 30.0741 16.9853C30.1194 15.5608 29.7642 13.2712 27.0723 11.1956C24.2448 9.01545 21.1734 8.83755 19.9551 8.83755C18.7368 8.83755 15.7555 9.01545 12.9281 11.1956Z" fill="url(#paint4_radial_15_736)"/>
<path d="M12.9281 11.1956C10.2362 13.2712 9.88091 15.5607 9.92618 16.9851C9.99924 18.2719 10.1607 19.1663 10.2887 19.8749L10.3021 19.9489C10.4524 20.7829 10.1176 21.5952 9.49683 22.1096L8.85076 22.6448C8.80639 22.6815 8.79267 22.7438 8.81749 22.7958L10.0361 25.3501L8.44705 26.1082L7.2284 23.554C6.85616 22.7738 7.06183 21.8404 7.7275 21.289L8.37358 20.7537C8.53727 20.6181 8.5997 20.4299 8.56931 20.2612L8.55508 20.1826C8.4947 19.8482 8.19887 17.8083 8.18076 17.0441C8.15427 15.9266 8.22559 12.7721 10.5307 10.103C13.2189 6.99039 17.4713 6 19.9551 6C22.604 6 26.7814 6.99039 29.4696 10.103C31.7747 12.7721 31.8461 15.9266 31.8196 17.0441C31.8576 17.7562 31.5056 19.8482 31.4452 20.1826L31.4311 20.2612C31.4007 20.4299 31.4631 20.6181 31.6267 20.7537L32.2729 21.289C32.9385 21.8404 33.1442 22.7738 32.7719 23.554L31.5533 26.1082L29.9642 25.3501L31.1828 22.7958C31.2077 22.7438 31.1939 22.6815 31.1495 22.6448L30.5035 22.1096C29.8827 21.5952 29.5479 20.7829 29.6982 19.9489L29.7116 19.8749C29.8396 19.1663 30.0011 18.272 30.0741 16.9853C30.1194 15.5608 29.7642 13.2712 27.0723 11.1956C24.2448 9.01545 21.1734 8.83755 19.9551 8.83755C18.7368 8.83755 15.7555 9.01545 12.9281 11.1956Z" fill="url(#paint5_linear_15_736)"/>
</g>
<path d="M8.04041 26.2612C7.9097 25.755 8.10446 25.2112 8.50364 24.9678L11.5677 23.0989C11.979 22.848 12.4832 23.0941 12.6228 23.6139L14.965 32.3331C15.1053 32.8554 14.8092 33.3997 14.3473 33.4687L10.8481 33.9912C10.397 34.0586 9.97025 33.7334 9.83804 33.2215L8.04041 26.2612Z" fill="url(#paint6_linear_15_736)"/>
<path d="M8.04041 26.2612C7.9097 25.755 8.10446 25.2112 8.50364 24.9678L11.5677 23.0989C11.979 22.848 12.4832 23.0941 12.6228 23.6139L14.965 32.3331C15.1053 32.8554 14.8092 33.3997 14.3473 33.4687L10.8481 33.9912C10.397 34.0586 9.97025 33.7334 9.83804 33.2215L8.04041 26.2612Z" fill="url(#paint7_linear_15_736)"/>
<path d="M8.04041 26.2612C7.9097 25.755 8.10446 25.2112 8.50364 24.9678L11.5677 23.0989C11.979 22.848 12.4832 23.0941 12.6228 23.6139L14.965 32.3331C15.1053 32.8554 14.8092 33.3997 14.3473 33.4687L10.8481 33.9912C10.397 34.0586 9.97025 33.7334 9.83804 33.2215L8.04041 26.2612Z" fill="url(#paint8_radial_15_736)"/>
<path d="M8.04041 26.2612C7.9097 25.755 8.10446 25.2112 8.50364 24.9678L11.5677 23.0989C11.979 22.848 12.4832 23.0941 12.6228 23.6139L14.965 32.3331C15.1053 32.8554 14.8092 33.3997 14.3473 33.4687L10.8481 33.9912C10.397 34.0586 9.97025 33.7334 9.83804 33.2215L8.04041 26.2612Z" fill="url(#paint9_linear_15_736)"/>
<path d="M8.04041 26.2612C7.9097 25.755 8.10446 25.2112 8.50364 24.9678L11.5677 23.0989C11.979 22.848 12.4832 23.0941 12.6228 23.6139L14.965 32.3331C15.1053 32.8554 14.8092 33.3997 14.3473 33.4687L10.8481 33.9912C10.397 34.0586 9.97025 33.7334 9.83804 33.2215L8.04041 26.2612Z" fill="url(#paint10_linear_15_736)"/>
<g filter="url(#filter1_i_15_736)">
<path d="M32.3379 26.4668C32.4789 26.0028 32.2688 25.5042 31.8383 25.2811L28.5338 23.5679C28.0902 23.3379 27.5464 23.5634 27.3958 24.0399L24.87 32.0331C24.7186 32.5119 25.038 33.0109 25.5361 33.0741L29.3098 33.5531C29.7964 33.6149 30.2566 33.3168 30.3991 32.8475L32.3379 26.4668Z" fill="url(#paint11_linear_15_736)"/>
<path d="M32.3379 26.4668C32.4789 26.0028 32.2688 25.5042 31.8383 25.2811L28.5338 23.5679C28.0902 23.3379 27.5464 23.5634 27.3958 24.0399L24.87 32.0331C24.7186 32.5119 25.038 33.0109 25.5361 33.0741L29.3098 33.5531C29.7964 33.6149 30.2566 33.3168 30.3991 32.8475L32.3379 26.4668Z" fill="url(#paint12_linear_15_736)"/>
<path d="M32.3379 26.4668C32.4789 26.0028 32.2688 25.5042 31.8383 25.2811L28.5338 23.5679C28.0902 23.3379 27.5464 23.5634 27.3958 24.0399L24.87 32.0331C24.7186 32.5119 25.038 33.0109 25.5361 33.0741L29.3098 33.5531C29.7964 33.6149 30.2566 33.3168 30.3991 32.8475L32.3379 26.4668Z" fill="url(#paint13_radial_15_736)"/>
<path d="M32.3379 26.4668C32.4789 26.0028 32.2688 25.5042 31.8383 25.2811L28.5338 23.5679C28.0902 23.3379 27.5464 23.5634 27.3958 24.0399L24.87 32.0331C24.7186 32.5119 25.038 33.0109 25.5361 33.0741L29.3098 33.5531C29.7964 33.6149 30.2566 33.3168 30.3991 32.8475L32.3379 26.4668Z" fill="url(#paint14_radial_15_736)"/>
</g>
<path d="M10.0349 23.7361C9.90476 23.3125 10.1498 22.8656 10.5821 22.7381L12.9685 22.0342C13.4009 21.9067 13.8569 22.1468 13.987 22.5704L16.9651 32.2639C17.0953 32.6876 16.8502 33.1344 16.4179 33.2619L14.0315 33.9658C13.5991 34.0933 13.1431 33.8533 13.0129 33.4296L10.0349 23.7361Z" fill="url(#paint15_linear_15_736)"/>
<path d="M10.0349 23.7361C9.90476 23.3125 10.1498 22.8656 10.5821 22.7381L12.9685 22.0342C13.4009 21.9067 13.8569 22.1468 13.987 22.5704L16.9651 32.2639C17.0953 32.6876 16.8502 33.1344 16.4179 33.2619L14.0315 33.9658C13.5991 34.0933 13.1431 33.8533 13.0129 33.4296L10.0349 23.7361Z" fill="url(#paint16_radial_15_736)"/>
<path d="M10.0349 23.7361C9.90476 23.3125 10.1498 22.8656 10.5821 22.7381L12.9685 22.0342C13.4009 21.9067 13.8569 22.1468 13.987 22.5704L16.9651 32.2639C17.0953 32.6876 16.8502 33.1344 16.4179 33.2619L14.0315 33.9658C13.5991 34.0933 13.1431 33.8533 13.0129 33.4296L10.0349 23.7361Z" fill="url(#paint17_radial_15_736)"/>
<path d="M10.0349 23.7361C9.90476 23.3125 10.1498 22.8656 10.5821 22.7381L12.9685 22.0342C13.4009 21.9067 13.8569 22.1468 13.987 22.5704L16.9651 32.2639C17.0953 32.6876 16.8502 33.1344 16.4179 33.2619L14.0315 33.9658C13.5991 34.0933 13.1431 33.8533 13.0129 33.4296L10.0349 23.7361Z" fill="url(#paint18_linear_15_736)"/>
<path d="M28.9701 23.7361C29.0816 23.3125 28.8716 22.8656 28.501 22.7381L26.4556 22.0342C26.0849 21.9067 25.6941 22.1468 25.5825 22.5704L23.0299 32.2639C22.9183 32.6876 23.1283 33.1344 23.499 33.2619L25.5444 33.9658C25.915 34.0933 26.3059 33.8533 26.4175 33.4296L28.9701 23.7361Z" fill="url(#paint19_linear_15_736)"/>
<path d="M28.9701 23.7361C29.0816 23.3125 28.8716 22.8656 28.501 22.7381L26.4556 22.0342C26.0849 21.9067 25.6941 22.1468 25.5825 22.5704L23.0299 32.2639C22.9183 32.6876 23.1283 33.1344 23.499 33.2619L25.5444 33.9658C25.915 34.0933 26.3059 33.8533 26.4175 33.4296L28.9701 23.7361Z" fill="url(#paint20_linear_15_736)"/>
<path d="M28.9701 23.7361C29.0816 23.3125 28.8716 22.8656 28.501 22.7381L26.4556 22.0342C26.0849 21.9067 25.6941 22.1468 25.5825 22.5704L23.0299 32.2639C22.9183 32.6876 23.1283 33.1344 23.499 33.2619L25.5444 33.9658C25.915 34.0933 26.3059 33.8533 26.4175 33.4296L28.9701 23.7361Z" fill="url(#paint21_radial_15_736)"/>
<path d="M28.9701 23.7361C29.0816 23.3125 28.8716 22.8656 28.501 22.7381L26.4556 22.0342C26.0849 21.9067 25.6941 22.1468 25.5825 22.5704L23.0299 32.2639C22.9183 32.6876 23.1283 33.1344 23.499 33.2619L25.5444 33.9658C25.915 34.0933 26.3059 33.8533 26.4175 33.4296L28.9701 23.7361Z" fill="url(#paint22_radial_15_736)"/>
<path d="M9.91556 17.0304C9.87025 15.5509 10.2259 13.1728 12.9205 11.0169C15.7509 8.75234 18.7353 8.56756 19.9549 8.56756C21.1744 8.56756 24.2491 8.75234 27.0795 11.0169C29.7742 13.1728 30.1297 15.551 30.0844 17.0306C30.0113 18.367 29.8496 19.296 29.7215 20.032L29.7081 20.1089C29.5876 20.8028 29.7787 21.4825 30.1791 22L30.8501 18.1516C30.8675 18.0614 30.8833 17.9702 30.8977 17.879C30.9652 17.4506 31 17.0132 31 16.5686C31 11.284 26.0751 7 20 7C13.9249 7 9 11.284 9 16.5686C9 17.0187 9.03573 17.4616 9.10486 17.8953H9.1023L9.82465 21.9952C10.2225 21.4782 10.412 20.8007 10.2918 20.1089L10.2784 20.032C10.1504 19.296 9.98869 18.3669 9.91556 17.0304Z" fill="url(#paint23_linear_15_736)"/>
<path d="M9.91556 17.0304C9.87025 15.5509 10.2259 13.1728 12.9205 11.0169C15.7509 8.75234 18.7353 8.56756 19.9549 8.56756C21.1744 8.56756 24.2491 8.75234 27.0795 11.0169C29.7742 13.1728 30.1297 15.551 30.0844 17.0306C30.0113 18.367 29.8496 19.296 29.7215 20.032L29.7081 20.1089C29.5876 20.8028 29.7787 21.4825 30.1791 22L30.8501 18.1516C30.8675 18.0614 30.8833 17.9702 30.8977 17.879C30.9652 17.4506 31 17.0132 31 16.5686C31 11.284 26.0751 7 20 7C13.9249 7 9 11.284 9 16.5686C9 17.0187 9.03573 17.4616 9.10486 17.8953H9.1023L9.82465 21.9952C10.2225 21.4782 10.412 20.8007 10.2918 20.1089L10.2784 20.032C10.1504 19.296 9.98869 18.3669 9.91556 17.0304Z" fill="url(#paint24_radial_15_736)"/>
<path d="M9.91556 17.0304C9.87025 15.5509 10.2259 13.1728 12.9205 11.0169C15.7509 8.75234 18.7353 8.56756 19.9549 8.56756C21.1744 8.56756 24.2491 8.75234 27.0795 11.0169C29.7742 13.1728 30.1297 15.551 30.0844 17.0306C30.0113 18.367 29.8496 19.296 29.7215 20.032L29.7081 20.1089C29.5876 20.8028 29.7787 21.4825 30.1791 22L30.8501 18.1516C30.8675 18.0614 30.8833 17.9702 30.8977 17.879C30.9652 17.4506 31 17.0132 31 16.5686C31 11.284 26.0751 7 20 7C13.9249 7 9 11.284 9 16.5686C9 17.0187 9.03573 17.4616 9.10486 17.8953H9.1023L9.82465 21.9952C10.2225 21.4782 10.412 20.8007 10.2918 20.1089L10.2784 20.032C10.1504 19.296 9.98869 18.3669 9.91556 17.0304Z" fill="url(#paint25_linear_15_736)"/>
<path d="M9.91556 17.0304C9.87025 15.5509 10.2259 13.1728 12.9205 11.0169C15.7509 8.75234 18.7353 8.56756 19.9549 8.56756C21.1744 8.56756 24.2491 8.75234 27.0795 11.0169C29.7742 13.1728 30.1297 15.551 30.0844 17.0306C30.0113 18.367 29.8496 19.296 29.7215 20.032L29.7081 20.1089C29.5876 20.8028 29.7787 21.4825 30.1791 22L30.8501 18.1516C30.8675 18.0614 30.8833 17.9702 30.8977 17.879C30.9652 17.4506 31 17.0132 31 16.5686C31 11.284 26.0751 7 20 7C13.9249 7 9 11.284 9 16.5686C9 17.0187 9.03573 17.4616 9.10486 17.8953H9.1023L9.82465 21.9952C10.2225 21.4782 10.412 20.8007 10.2918 20.1089L10.2784 20.032C10.1504 19.296 9.98869 18.3669 9.91556 17.0304Z" fill="url(#paint26_radial_15_736)"/>
<g filter="url(#filter2_f_15_736)">
<path d="M30.2346 21.328C30.2519 21.241 30.8721 17.8899 30.8865 17.8021C30.9539 17.3897 30.9887 16.9685 30.9887 16.5405C30.9887 11.4528 26.0689 7.32837 20.0001 7.32837C13.9312 7.32837 9.01147 11.4528 9.01147 16.5405C9.01147 16.9739 9.04717 17.4003 9.11623 17.8178H9.11366L9.76814 21.4139" stroke="url(#paint27_linear_15_736)" stroke-width="0.1"/>
</g>
<g filter="url(#filter3_f_15_736)">
<path d="M31.1265 20.0054C31.0669 20.2316 31.0292 20.7452 31.3545 20.9887C31.6799 21.2322 31.8789 21.4002 31.9378 21.4538C32.2404 21.6557 32.7515 22.2747 32.3741 23.1355" stroke="#D1D1D3" stroke-width="0.3"/>
</g>
<defs>
<filter id="filter0_i_15_736" x="7.04443" y="5.75" width="26.1615" height="20.3582" filterUnits="userSpaceOnUse" color-interpolation-filters="sRGB">
<feFlood flood-opacity="0" result="BackgroundImageFix"/>
<feBlend mode="normal" in="SourceGraphic" in2="BackgroundImageFix" result="shape"/>
<feColorMatrix in="SourceAlpha" type="matrix" values="0 0 0 0 0 0 0 0 0 0 0 0 0 0 0 0 0 0 127 0" result="hardAlpha"/>
<feOffset dx="0.25" dy="-0.25"/>
<feGaussianBlur stdDeviation="0.25"/>
<feComposite in2="hardAlpha" operator="arithmetic" k2="-1" k3="1"/>
<feColorMatrix type="matrix" values="0 0 0 0 0.52549 0 0 0 0 0.513726 0 0 0 0 0.541176 0 0 0 1 0"/>
<feBlend mode="normal" in2="shape" result="effect1_innerShadow_15_736"/>
</filter>
<filter id="filter1_i_15_736" x="24.6322" y="23.4772" width="7.74932" height="10.284" filterUnits="userSpaceOnUse" color-interpolation-filters="sRGB">
<feFlood flood-opacity="0" result="BackgroundImageFix"/>
<feBlend mode="normal" in="SourceGraphic" in2="BackgroundImageFix" result="shape"/>
<feColorMatrix in="SourceAlpha" type="matrix" values="0 0 0 0 0 0 0 0 0 0 0 0 0 0 0 0 0 0 127 0" result="hardAlpha"/>
<feOffset dx="-0.2" dy="0.2"/>
<feGaussianBlur stdDeviation="0.2"/>
<feComposite in2="hardAlpha" operator="arithmetic" k2="-1" k3="1"/>
<feColorMatrix type="matrix" values="0 0 0 0 0.690196 0 0 0 0 0.686275 0 0 0 0 0.698039 0 0 0 1 0"/>
<feBlend mode="normal" in2="shape" result="effect1_innerShadow_15_736"/>
</filter>
<filter id="filter2_f_15_736" x="8.76149" y="7.07837" width="22.4772" height="14.5445" filterUnits="userSpaceOnUse" color-interpolation-filters="sRGB">
<feFlood flood-opacity="0" result="BackgroundImageFix"/>
<feBlend mode="normal" in="SourceGraphic" in2="BackgroundImageFix" result="shape"/>
<feGaussianBlur stdDeviation="0.1" result="effect1_foregroundBlur_15_736"/>
</filter>
<filter id="filter3_f_15_736" x="30.6366" y="19.6672" width="2.32189" height="3.82852" filterUnits="userSpaceOnUse" color-interpolation-filters="sRGB">
<feFlood flood-opacity="0" result="BackgroundImageFix"/>
<feBlend mode="normal" in="SourceGraphic" in2="BackgroundImageFix" result="shape"/>
<feGaussianBlur stdDeviation="0.15" result="effect1_foregroundBlur_15_736"/>
</filter>
<radialGradient id="paint0_radial_15_736" cx="0" cy="0" r="1" gradientUnits="userSpaceOnUse" gradientTransform="translate(27.6654 8.41546) rotate(114.311) scale(17.0388 23.5676)">
<stop stop-color="#DADADB"/>
<stop offset="1" stop-color="#B9B5BD"/>
</radialGradient>
<radialGradient id="paint1_radial_15_736" cx="0" cy="0" r="1" gradientUnits="userSpaceOnUse" gradientTransform="translate(7.04444 14.7791) rotate(19.2062) scale(9.67033 32.2742)">
<stop offset="0.095751" stop-color="#969499"/>
<stop offset="1" stop-color="#969499" stop-opacity="0"/>
</radialGradient>
<radialGradient id="paint2_radial_15_736" cx="0" cy="0" r="1" gradientUnits="userSpaceOnUse" gradientTransform="translate(9.89777 24.5949) rotate(-117.087) scale(3.0795 1.02996)">
<stop offset="0.256074" stop-color="#C6C4C9"/>
<stop offset="1" stop-color="#C6C4C9" stop-opacity="0"/>
</radialGradient>
<radialGradient id="paint3_radial_15_736" cx="0" cy="0" r="1" gradientUnits="userSpaceOnUse" gradientTransform="translate(9.7722 24.7623) rotate(-117.35) scale(2.04999 0.58974)">
<stop offset="0.166979" stop-color="#8D8D8F"/>
<stop offset="1" stop-color="#8D8D8F" stop-opacity="0"/>
</radialGradient>
<radialGradient id="paint4_radial_15_736" cx="0" cy="0" r="1" gradientUnits="userSpaceOnUse" gradientTransform="translate(26.3899 12.1001) rotate(-54.3815) scale(3.44995 6.71882)">
<stop offset="0.56676" stop-color="#EBEBED"/>
<stop offset="1" stop-color="#EBEBED" stop-opacity="0"/>
</radialGradient>
<linearGradient id="paint5_linear_15_736" x1="31.9571" y1="25.453" x2="31.1618" y2="22.6903" gradientUnits="userSpaceOnUse">
<stop offset="0.326903" stop-color="#B1B0B4"/>
<stop offset="1" stop-color="#B1B0B4" stop-opacity="0"/>
</linearGradient>
<linearGradient id="paint6_linear_15_736" x1="9.29439" y1="25.1735" x2="12.2565" y2="33.7383" gradientUnits="userSpaceOnUse">
<stop stop-color="#A6A0AA"/>
<stop offset="1" stop-color="#9D94A2"/>
</linearGradient>
<linearGradient id="paint7_linear_15_736" x1="12.174" y1="34" x2="11.2676" y2="31.313" gradientUnits="userSpaceOnUse">
<stop stop-color="#998E9E"/>
<stop offset="1" stop-color="#998E9E" stop-opacity="0"/>
</linearGradient>
<radialGradient id="paint8_radial_15_736" cx="0" cy="0" r="1" gradientUnits="userSpaceOnUse" gradientTransform="translate(8 25.8595) rotate(77.262) scale(9.70479 1.00076)">
<stop stop-color="#817F83"/>
<stop offset="1" stop-color="#817F83" stop-opacity="0"/>
</radialGradient>
<linearGradient id="paint9_linear_15_736" x1="8.79879" y1="23.5959" x2="10.4372" y2="26.8671" gradientUnits="userSpaceOnUse">
<stop stop-color="#7F7E80"/>
<stop offset="1" stop-color="#7F7E80" stop-opacity="0"/>
</linearGradient>
<linearGradient id="paint10_linear_15_736" x1="12.5529" y1="28.1516" x2="11.0607" y2="28.5652" gradientUnits="userSpaceOnUse">
<stop offset="0.181858" stop-color="#807D84"/>
<stop offset="1" stop-color="#807D84" stop-opacity="0"/>
</linearGradient>
<linearGradient id="paint11_linear_15_736" x1="31.2264" y1="24.8409" x2="28.6068" y2="33.5611" gradientUnits="userSpaceOnUse">
<stop stop-color="#BAB9BC"/>
<stop offset="1" stop-color="#9F96A4"/>
</linearGradient>
<linearGradient id="paint12_linear_15_736" x1="27.2963" y1="33.5611" x2="29.2142" y2="30.4688" gradientUnits="userSpaceOnUse">
<stop stop-color="#9A8F9F"/>
<stop offset="1" stop-color="#9A8F9F" stop-opacity="0"/>
</linearGradient>
<radialGradient id="paint13_radial_15_736" cx="0" cy="0" r="1" gradientUnits="userSpaceOnUse" gradientTransform="translate(31.7452 26.7745) rotate(106.376) scale(3.73581 0.685471)">
<stop stop-color="#C7C6C8"/>
<stop offset="1" stop-color="#BAB8BC" stop-opacity="0"/>
</radialGradient>
<radialGradient id="paint14_radial_15_736" cx="0" cy="0" r="1" gradientUnits="userSpaceOnUse" gradientTransform="translate(27.7365 26.7274) rotate(19.7468) scale(3.90842 2.57598)">
<stop stop-color="#C1BFC3"/>
<stop offset="1" stop-color="#C1BFC3" stop-opacity="0"/>
</radialGradient>
<linearGradient id="paint15_linear_15_736" x1="11.5712" y1="22.4339" x2="15.2628" y2="34.9925" gradientUnits="userSpaceOnUse">
<stop stop-color="#B7B6B8"/>
<stop offset="0.321101" stop-color="#D9D5DD"/>
<stop offset="0.681651" stop-color="#D9D5DD"/>
<stop offset="1" stop-color="#CDC1D4"/>
</linearGradient>
<radialGradient id="paint16_radial_15_736" cx="0" cy="0" r="1" gradientUnits="userSpaceOnUse" gradientTransform="translate(9.75075 22.9033) rotate(72.4218) scale(16.7084 1.40754)">
<stop stop-color="#A4A2A6"/>
<stop offset="1" stop-color="#C5BACF" stop-opacity="0"/>
</radialGradient>
<radialGradient id="paint17_radial_15_736" cx="0" cy="0" r="1" gradientUnits="userSpaceOnUse" gradientTransform="translate(15.212 26.6585) rotate(162.975) scale(1.06882 9.68812)">
<stop offset="0.261566" stop-color="#F6F4F7"/>
<stop offset="1" stop-color="#E6E1EA" stop-opacity="0"/>
</radialGradient>
<linearGradient id="paint18_linear_15_736" x1="15.8348" y1="28.1606" x2="15.2932" y2="28.3068" gradientUnits="userSpaceOnUse">
<stop offset="0.133145" stop-color="#DBD9DE"/>
<stop offset="1" stop-color="#DBD9DE" stop-opacity="0"/>
</linearGradient>
<linearGradient id="paint19_linear_15_736" x1="28.1368" y1="22.34" x2="23.3825" y2="34.7867" gradientUnits="userSpaceOnUse">
<stop stop-color="#DAD9DB"/>
<stop offset="0.399322" stop-color="#DEDDE1"/>
<stop offset="0.961979" stop-color="#C7B9CF"/>
</linearGradient>
<linearGradient id="paint20_linear_15_736" x1="27.7535" y1="22.2149" x2="27.0224" y2="24.2555" gradientUnits="userSpaceOnUse">
<stop offset="0.10868" stop-color="#C9C9CA"/>
<stop offset="1" stop-color="#C9C9CA" stop-opacity="0"/>
</linearGradient>
<radialGradient id="paint21_radial_15_736" cx="0" cy="0" r="1" gradientUnits="userSpaceOnUse" gradientTransform="translate(24.6328 25.6884) rotate(17.9037) scale(1.32331 15.8014)">
<stop offset="0.205252" stop-color="#A4A3A6"/>
<stop offset="1" stop-color="#CECAD3" stop-opacity="0"/>
</radialGradient>
<radialGradient id="paint22_radial_15_736" cx="0" cy="0" r="1" gradientUnits="userSpaceOnUse" gradientTransform="translate(28.0136 25.8135) rotate(104.061) scale(3.88728 0.552077)">
<stop offset="0.151268" stop-color="#F5F3F7"/>
<stop offset="1" stop-color="#E8E4EC" stop-opacity="0"/>
</radialGradient>
<linearGradient id="paint23_linear_15_736" x1="10.025" y1="21.206" x2="21.9459" y2="6.48002" gradientUnits="userSpaceOnUse">
<stop stop-color="#CDCBCF"/>
<stop offset="1" stop-color="#BEB5C7"/>
</linearGradient>
<radialGradient id="paint24_radial_15_736" cx="0" cy="0" r="1" gradientUnits="userSpaceOnUse" gradientTransform="translate(26.6745 12.4211) rotate(-88.1074) scale(5.71817 16.9559)">
<stop offset="0.172043" stop-color="#AFA7B6"/>
<stop offset="1" stop-color="#AFA7B6" stop-opacity="0"/>
</radialGradient>
<linearGradient id="paint25_linear_15_736" x1="30.3884" y1="22" x2="26.7013" y2="13.3003" gradientUnits="userSpaceOnUse">
<stop stop-color="#9B99A0"/>
<stop offset="1" stop-color="#9B99A0" stop-opacity="0"/>
</linearGradient>
<radialGradient id="paint26_radial_15_736" cx="0" cy="0" r="1" gradientUnits="userSpaceOnUse" gradientTransform="translate(10.2138 22.8062) rotate(-89.0313) scale(3.72349 5.46122)">
<stop stop-color="#A5A2A9"/>
<stop offset="1" stop-color="#A5A2A9" stop-opacity="0"/>
</radialGradient>
<linearGradient id="paint27_linear_15_736" x1="14.0284" y1="11.0384" x2="29.1829" y2="11.1013" gradientUnits="userSpaceOnUse">
<stop stop-color="#CFC9D4"/>
<stop offset="1" stop-color="#DFDDE3"/>
</linearGradient>
</defs>
</svg>
