<svg width="40" height="40" viewBox="0 0 40 40" fill="none" xmlns="http://www.w3.org/2000/svg">
<g filter="url(#filter0_i_15_818)">
<path d="M7.57812 15.0312C6.88776 15.0312 6.32812 15.591 6.32812 16.2812V32.6719C6.32812 33.3622 6.88776 33.9219 7.57812 33.9219H18.5825C18.9009 34.4928 19.5108 34.879 20.2109 34.879C20.911 34.879 21.521 34.4928 21.8394 33.9219H32.8438C33.5341 33.9219 34.0938 33.3622 34.0938 32.6719V16.2812C34.0938 15.591 33.5341 15.0312 32.8438 15.0312H7.57812Z" fill="#3E6ACA"/>
</g>
<g filter="url(#filter1_ii_15_818)">
<path d="M7.57812 14.0625C6.88776 14.0625 6.32812 14.6221 6.32812 15.3125V31.7031C6.32812 32.3935 6.88776 32.9531 7.57812 32.9531H18.5825C18.9009 33.524 19.5108 33.9102 20.2109 33.9102C20.911 33.9102 21.521 33.524 21.8394 32.9531H32.8438C33.5341 32.9531 34.0938 32.3935 34.0938 31.7031V15.3125C34.0938 14.6221 33.5341 14.0625 32.8438 14.0625H7.57812Z" fill="url(#paint0_linear_15_818)"/>
</g>
<g filter="url(#filter2_f_15_818)">
<path d="M8.81036 13.0938L7.24475 15.0354C7.10645 15.2069 7.03125 15.4187 7.03125 15.6369V29.9311C7.03125 30.6034 7.59088 31.1484 8.28125 31.1484H31.7188C32.4091 31.1484 32.9688 30.6034 32.9688 29.9311V15.6369C32.9688 15.4187 32.8936 15.2069 32.7552 15.0354L31.1896 13.0938L29.3481 27.7399H10.6519L8.81036 13.0938Z" fill="#3F9BEA"/>
</g>
<path d="M18.7734 29.7031H21.6484V31.2813C21.6484 32.0752 21.0048 32.7188 20.2109 32.7188C19.417 32.7188 18.7734 32.0752 18.7734 31.2812V29.7031Z" fill="url(#paint1_radial_15_818)"/>
<path d="M18.7734 29.7031H21.6484V31.2813C21.6484 32.0752 21.0048 32.7188 20.2109 32.7188C19.417 32.7188 18.7734 32.0752 18.7734 31.2812V29.7031Z" fill="url(#paint2_linear_15_818)"/>
<g filter="url(#filter3_i_15_818)">
<path d="M7.42445 14.4547L8.99004 12.4609L10.8316 27.5H20.1797V31H8.46094C7.77058 31 7.21094 30.4404 7.21094 29.75V15.0723C7.21094 14.8483 7.28612 14.6308 7.42445 14.4547Z" fill="url(#paint3_linear_15_818)"/>
</g>
<g filter="url(#filter4_i_15_818)">
<path d="M32.9349 14.4547L31.3693 12.4609L29.5278 27.5H20.1797V31H31.8984C32.5888 31 33.1484 30.4404 33.1484 29.75V15.0723C33.1484 14.8483 33.0733 14.6308 32.9349 14.4547Z" fill="url(#paint4_linear_15_818)"/>
<path d="M32.9349 14.4547L31.3693 12.4609L29.5278 27.5H20.1797V31H31.8984C32.5888 31 33.1484 30.4404 33.1484 29.75V15.0723C33.1484 14.8483 33.0733 14.6308 32.9349 14.4547Z" fill="url(#paint5_linear_15_818)"/>
</g>
<path d="M32.9349 14.4547L31.3693 12.4609L29.5278 27.5H20.1797V31H31.8984C32.5888 31 33.1484 30.4404 33.1484 29.75V15.0723C33.1484 14.8483 33.0733 14.6308 32.9349 14.4547Z" fill="url(#paint6_linear_15_818)"/>
<g filter="url(#filter5_ii_15_818)">
<path d="M8.80469 13.0312C8.80469 12.479 9.2524 12.0312 9.80469 12.0312H17.6797C19.0604 12.0312 20.1797 13.1505 20.1797 14.5312V30.9922C20.1797 29.8919 19.0469 29 17.7344 29H10.0547C9.36433 29 8.80469 28.4404 8.80469 27.75V13.0312Z" fill="url(#paint7_linear_15_818)"/>
<path d="M8.80469 13.0312C8.80469 12.479 9.2524 12.0312 9.80469 12.0312H17.6797C19.0604 12.0312 20.1797 13.1505 20.1797 14.5312V30.9922C20.1797 29.8919 19.0469 29 17.7344 29H10.0547C9.36433 29 8.80469 28.4404 8.80469 27.75V13.0312Z" fill="url(#paint8_linear_15_818)"/>
<path d="M8.80469 13.0312C8.80469 12.479 9.2524 12.0312 9.80469 12.0312H17.6797C19.0604 12.0312 20.1797 13.1505 20.1797 14.5312V30.9922C20.1797 29.8919 19.0469 29 17.7344 29H10.0547C9.36433 29 8.80469 28.4404 8.80469 27.75V13.0312Z" fill="url(#paint9_linear_15_818)"/>
</g>
<g filter="url(#filter6_ii_15_818)">
<path d="M31.5547 13.0312C31.5547 12.479 31.107 12.0312 30.5547 12.0312H22.6797C21.299 12.0312 20.1797 13.1505 20.1797 14.5312V30.9922C20.1797 29.8919 21.3125 29 22.625 29H30.3047C30.995 29 31.5547 28.4404 31.5547 27.75V13.0312Z" fill="url(#paint10_linear_15_818)"/>
<path d="M31.5547 13.0312C31.5547 12.479 31.107 12.0312 30.5547 12.0312H22.6797C21.299 12.0312 20.1797 13.1505 20.1797 14.5312V30.9922C20.1797 29.8919 21.3125 29 22.625 29H30.3047C30.995 29 31.5547 28.4404 31.5547 27.75V13.0312Z" fill="url(#paint11_linear_15_818)"/>
<path d="M31.5547 13.0312C31.5547 12.479 31.107 12.0312 30.5547 12.0312H22.6797C21.299 12.0312 20.1797 13.1505 20.1797 14.5312V30.9922C20.1797 29.8919 21.3125 29 22.625 29H30.3047C30.995 29 31.5547 28.4404 31.5547 27.75V13.0312Z" fill="url(#paint12_linear_15_818)"/>
</g>
<defs>
<filter id="filter0_i_15_818" x="6.32812" y="14.8812" width="27.9157" height="19.9977" filterUnits="userSpaceOnUse" color-interpolation-filters="sRGB">
<feFlood flood-opacity="0" result="BackgroundImageFix"/>
<feBlend mode="normal" in="SourceGraphic" in2="BackgroundImageFix" result="shape"/>
<feColorMatrix in="SourceAlpha" type="matrix" values="0 0 0 0 0 0 0 0 0 0 0 0 0 0 0 0 0 0 127 0" result="hardAlpha"/>
<feOffset dx="0.15" dy="-0.15"/>
<feGaussianBlur stdDeviation="0.25"/>
<feComposite in2="hardAlpha" operator="arithmetic" k2="-1" k3="1"/>
<feColorMatrix type="matrix" values="0 0 0 0 0.305882 0 0 0 0 0.541176 0 0 0 0 0.780392 0 0 0 1 0"/>
<feBlend mode="normal" in2="shape" result="effect1_innerShadow_15_818"/>
</filter>
<filter id="filter1_ii_15_818" x="6.22812" y="13.9625" width="27.9657" height="19.9477" filterUnits="userSpaceOnUse" color-interpolation-filters="sRGB">
<feFlood flood-opacity="0" result="BackgroundImageFix"/>
<feBlend mode="normal" in="SourceGraphic" in2="BackgroundImageFix" result="shape"/>
<feColorMatrix in="SourceAlpha" type="matrix" values="0 0 0 0 0 0 0 0 0 0 0 0 0 0 0 0 0 0 127 0" result="hardAlpha"/>
<feOffset dx="-0.1"/>
<feGaussianBlur stdDeviation="0.15"/>
<feComposite in2="hardAlpha" operator="arithmetic" k2="-1" k3="1"/>
<feColorMatrix type="matrix" values="0 0 0 0 0.45098 0 0 0 0 0.941176 0 0 0 0 1 0 0 0 1 0"/>
<feBlend mode="normal" in2="shape" result="effect1_innerShadow_15_818"/>
<feColorMatrix in="SourceAlpha" type="matrix" values="0 0 0 0 0 0 0 0 0 0 0 0 0 0 0 0 0 0 127 0" result="hardAlpha"/>
<feOffset dx="0.1" dy="-0.1"/>
<feGaussianBlur stdDeviation="0.15"/>
<feComposite in2="hardAlpha" operator="arithmetic" k2="-1" k3="1"/>
<feColorMatrix type="matrix" values="0 0 0 0 0.286275 0 0 0 0 0.666667 0 0 0 0 0.901961 0 0 0 1 0"/>
<feBlend mode="normal" in2="effect1_innerShadow_15_818" result="effect2_innerShadow_15_818"/>
</filter>
<filter id="filter2_f_15_818" x="6.53125" y="12.5938" width="26.9376" height="19.0547" filterUnits="userSpaceOnUse" color-interpolation-filters="sRGB">
<feFlood flood-opacity="0" result="BackgroundImageFix"/>
<feBlend mode="normal" in="SourceGraphic" in2="BackgroundImageFix" result="shape"/>
<feGaussianBlur stdDeviation="0.25" result="effect1_foregroundBlur_15_818"/>
</filter>
<filter id="filter3_i_15_818" x="7.21094" y="12.4609" width="13.0688" height="18.6391" filterUnits="userSpaceOnUse" color-interpolation-filters="sRGB">
<feFlood flood-opacity="0" result="BackgroundImageFix"/>
<feBlend mode="normal" in="SourceGraphic" in2="BackgroundImageFix" result="shape"/>
<feColorMatrix in="SourceAlpha" type="matrix" values="0 0 0 0 0 0 0 0 0 0 0 0 0 0 0 0 0 0 127 0" result="hardAlpha"/>
<feOffset dx="0.1" dy="0.1"/>
<feGaussianBlur stdDeviation="0.15"/>
<feComposite in2="hardAlpha" operator="arithmetic" k2="-1" k3="1"/>
<feColorMatrix type="matrix" values="0 0 0 0 0.694118 0 0 0 0 0.705882 0 0 0 0 0.733333 0 0 0 1 0"/>
<feBlend mode="normal" in2="shape" result="effect1_innerShadow_15_818"/>
</filter>
<filter id="filter4_i_15_818" x="20.1797" y="12.4609" width="13.0687" height="18.6391" filterUnits="userSpaceOnUse" color-interpolation-filters="sRGB">
<feFlood flood-opacity="0" result="BackgroundImageFix"/>
<feBlend mode="normal" in="SourceGraphic" in2="BackgroundImageFix" result="shape"/>
<feColorMatrix in="SourceAlpha" type="matrix" values="0 0 0 0 0 0 0 0 0 0 0 0 0 0 0 0 0 0 127 0" result="hardAlpha"/>
<feOffset dx="0.1" dy="0.1"/>
<feGaussianBlur stdDeviation="0.15"/>
<feComposite in2="hardAlpha" operator="arithmetic" k2="-1" k3="1"/>
<feColorMatrix type="matrix" values="0 0 0 0 0.831373 0 0 0 0 0.835294 0 0 0 0 0.854902 0 0 0 1 0"/>
<feBlend mode="normal" in2="shape" result="effect1_innerShadow_15_818"/>
</filter>
<filter id="filter5_ii_15_818" x="8.80469" y="12.0312" width="11.475" height="19.011" filterUnits="userSpaceOnUse" color-interpolation-filters="sRGB">
<feFlood flood-opacity="0" result="BackgroundImageFix"/>
<feBlend mode="normal" in="SourceGraphic" in2="BackgroundImageFix" result="shape"/>
<feColorMatrix in="SourceAlpha" type="matrix" values="0 0 0 0 0 0 0 0 0 0 0 0 0 0 0 0 0 0 127 0" result="hardAlpha"/>
<feOffset dy="0.05"/>
<feGaussianBlur stdDeviation="0.15"/>
<feComposite in2="hardAlpha" operator="arithmetic" k2="-1" k3="1"/>
<feColorMatrix type="matrix" values="0 0 0 0 0.827451 0 0 0 0 0.819608 0 0 0 0 0.854902 0 0 0 1 0"/>
<feBlend mode="normal" in2="shape" result="effect1_innerShadow_15_818"/>
<feColorMatrix in="SourceAlpha" type="matrix" values="0 0 0 0 0 0 0 0 0 0 0 0 0 0 0 0 0 0 127 0" result="hardAlpha"/>
<feOffset dx="0.1"/>
<feGaussianBlur stdDeviation="0.15"/>
<feComposite in2="hardAlpha" operator="arithmetic" k2="-1" k3="1"/>
<feColorMatrix type="matrix" values="0 0 0 0 0.980392 0 0 0 0 0.976471 0 0 0 0 1 0 0 0 1 0"/>
<feBlend mode="normal" in2="effect1_innerShadow_15_818" result="effect2_innerShadow_15_818"/>
</filter>
<filter id="filter6_ii_15_818" x="20.0797" y="12.0312" width="11.475" height="19.011" filterUnits="userSpaceOnUse" color-interpolation-filters="sRGB">
<feFlood flood-opacity="0" result="BackgroundImageFix"/>
<feBlend mode="normal" in="SourceGraphic" in2="BackgroundImageFix" result="shape"/>
<feColorMatrix in="SourceAlpha" type="matrix" values="0 0 0 0 0 0 0 0 0 0 0 0 0 0 0 0 0 0 127 0" result="hardAlpha"/>
<feOffset dx="-0.1"/>
<feGaussianBlur stdDeviation="0.15"/>
<feComposite in2="hardAlpha" operator="arithmetic" k2="-1" k3="1"/>
<feColorMatrix type="matrix" values="0 0 0 0 0.980392 0 0 0 0 0.976471 0 0 0 0 1 0 0 0 1 0"/>
<feBlend mode="normal" in2="shape" result="effect1_innerShadow_15_818"/>
<feColorMatrix in="SourceAlpha" type="matrix" values="0 0 0 0 0 0 0 0 0 0 0 0 0 0 0 0 0 0 127 0" result="hardAlpha"/>
<feOffset dy="0.05"/>
<feGaussianBlur stdDeviation="0.15"/>
<feComposite in2="hardAlpha" operator="arithmetic" k2="-1" k3="1"/>
<feColorMatrix type="matrix" values="0 0 0 0 0.827451 0 0 0 0 0.819608 0 0 0 0 0.854902 0 0 0 1 0"/>
<feBlend mode="normal" in2="effect1_innerShadow_15_818" result="effect2_innerShadow_15_818"/>
</filter>
<linearGradient id="paint0_linear_15_818" x1="20.2109" y1="18.4375" x2="20.2109" y2="33.9102" gradientUnits="userSpaceOnUse">
<stop stop-color="#5DD8FB"/>
<stop offset="1" stop-color="#41AEF2"/>
</linearGradient>
<radialGradient id="paint1_radial_15_818" cx="0" cy="0" r="1" gradientUnits="userSpaceOnUse" gradientTransform="translate(19.375 32.5313) rotate(-26.565) scale(2.23607 3.13748)">
<stop offset="0.231937" stop-color="#306AB3"/>
<stop offset="1" stop-color="#1A4CA8"/>
</radialGradient>
<linearGradient id="paint2_linear_15_818" x1="20.2109" y1="30.7813" x2="20.2109" y2="31.5313" gradientUnits="userSpaceOnUse">
<stop stop-color="#1748A6"/>
<stop offset="1" stop-color="#1748A6" stop-opacity="0"/>
</linearGradient>
<linearGradient id="paint3_linear_15_818" x1="16.5156" y1="32.6563" x2="9.26563" y2="25.9375" gradientUnits="userSpaceOnUse">
<stop offset="0.749863" stop-color="#B3A9CF"/>
<stop offset="0.931655" stop-color="#B6BAC5"/>
</linearGradient>
<linearGradient id="paint4_linear_15_818" x1="23.8437" y1="32.6563" x2="31.0937" y2="25.9375" gradientUnits="userSpaceOnUse">
<stop offset="0.71707" stop-color="#BBB3D9"/>
<stop offset="0.912508" stop-color="#DCDDE8"/>
</linearGradient>
<linearGradient id="paint5_linear_15_818" x1="31.9764" y1="12.8864" x2="31.9764" y2="17.3274" gradientUnits="userSpaceOnUse">
<stop stop-color="#D8DAE2"/>
<stop offset="1" stop-color="#D8DAE2" stop-opacity="0"/>
</linearGradient>
<linearGradient id="paint6_linear_15_818" x1="20.1797" y1="31" x2="21.7969" y2="29.0938" gradientUnits="userSpaceOnUse">
<stop stop-color="#A699C9"/>
<stop offset="1" stop-color="#A699C9" stop-opacity="0"/>
</linearGradient>
<linearGradient id="paint7_linear_15_818" x1="8.80469" y1="21.5117" x2="19.3281" y2="21.5117" gradientUnits="userSpaceOnUse">
<stop stop-color="#F3F1FA"/>
<stop offset="1" stop-color="#F0EBF9"/>
</linearGradient>
<linearGradient id="paint8_linear_15_818" x1="20.1797" y1="29.6875" x2="17.4531" y2="29.6875" gradientUnits="userSpaceOnUse">
<stop stop-color="#D5CCE8"/>
<stop offset="1" stop-color="#F2EBFF" stop-opacity="0"/>
</linearGradient>
<linearGradient id="paint9_linear_15_818" x1="20.2344" y1="29.9063" x2="20.0156" y2="29.9063" gradientUnits="userSpaceOnUse">
<stop offset="0.178572" stop-color="#BFB3D1"/>
<stop offset="1" stop-color="#BFB3D1" stop-opacity="0"/>
</linearGradient>
<linearGradient id="paint10_linear_15_818" x1="20.1797" y1="21.5117" x2="30.7031" y2="21.5117" gradientUnits="userSpaceOnUse">
<stop stop-color="#F3F1FA"/>
<stop offset="1" stop-color="#F0EBF9"/>
</linearGradient>
<linearGradient id="paint11_linear_15_818" x1="20.1797" y1="29.6875" x2="22.9844" y2="29.6875" gradientUnits="userSpaceOnUse">
<stop stop-color="#D5CCE8"/>
<stop offset="1" stop-color="#F2EBFF" stop-opacity="0"/>
</linearGradient>
<linearGradient id="paint12_linear_15_818" x1="20.1523" y1="29.9062" x2="20.3594" y2="29.9062" gradientUnits="userSpaceOnUse">
<stop stop-color="#BFB3D1"/>
<stop offset="1" stop-color="#BFB3D1" stop-opacity="0"/>
</linearGradient>
</defs>
</svg>
