<svg width="40" height="40" viewBox="0 0 40 40" fill="none" xmlns="http://www.w3.org/2000/svg">
<g filter="url(#filter0_iiii_15_938)">
<path d="M28.6719 7.57031H11.3281C8.42863 7.57031 6.07812 9.92082 6.07812 12.8203V28.3127C6.07812 31.2122 8.42863 33.5627 11.3281 33.5627H28.6719C31.5714 33.5627 33.9219 31.2122 33.9219 28.3127V12.8203C33.9219 9.92082 31.5714 7.57031 28.6719 7.57031Z" fill="url(#paint0_linear_15_938)"/>
</g>
<path d="M33.9219 14.3828H6.07812V12.6703C6.07812 9.85367 8.36146 7.57031 11.1781 7.57031H28.8219C31.6385 7.57031 33.9219 9.85367 33.9219 12.6703V14.3828Z" fill="url(#paint1_linear_15_938)"/>
<path d="M33.9219 14.3828H6.07812V12.6703C6.07812 9.85367 8.36146 7.57031 11.1781 7.57031H28.8219C31.6385 7.57031 33.9219 9.85367 33.9219 12.6703V14.3828Z" fill="url(#paint2_linear_15_938)"/>
<path d="M33.9219 14.3828H6.07812V12.6703C6.07812 9.85367 8.36146 7.57031 11.1781 7.57031H28.8219C31.6385 7.57031 33.9219 9.85367 33.9219 12.6703V14.3828Z" fill="url(#paint3_radial_15_938)"/>
<path d="M33.9219 14.3828H6.07812V12.6703C6.07812 9.85367 8.36146 7.57031 11.1781 7.57031H28.8219C31.6385 7.57031 33.9219 9.85367 33.9219 12.6703V14.3828Z" fill="url(#paint4_linear_15_938)"/>
<g filter="url(#filter1_ii_15_938)">
<path d="M33.9219 24.1946V28.4627C33.9219 31.2794 31.6385 33.5627 28.8219 33.5627H24.4965L33.9219 24.1946Z" fill="#D3CBDD"/>
</g>
<g filter="url(#filter2_dii_15_938)">
<path d="M15.2672 17.1953H12.6625C12.6073 17.1953 12.5625 17.2401 12.5625 17.2953V19.9C12.5625 19.9552 12.6073 20 12.6625 20H15.2672C15.3224 20 15.3672 19.9552 15.3672 19.9V17.2953C15.3672 17.2401 15.3224 17.1953 15.2672 17.1953Z" fill="#9896A1"/>
</g>
<g filter="url(#filter3_dii_15_938)">
<path d="M21.2555 17.1953H18.6508C18.5956 17.1953 18.5508 17.2401 18.5508 17.2953V19.9C18.5508 19.9552 18.5956 20 18.6508 20H21.2555C21.3107 20 21.3555 19.9552 21.3555 19.9V17.2953C21.3555 17.2401 21.3107 17.1953 21.2555 17.1953Z" fill="#9896A1"/>
</g>
<g filter="url(#filter4_dii_15_938)">
<path d="M27.2438 17.1953H24.6391C24.5839 17.1953 24.5391 17.2401 24.5391 17.2953V19.9C24.5391 19.9552 24.5839 20 24.6391 20H27.2438C27.299 20 27.3438 19.9552 27.3438 19.9V17.2953C27.3438 17.2401 27.299 17.1953 27.2438 17.1953Z" fill="#9896A1"/>
</g>
<g filter="url(#filter5_dii_15_938)">
<path d="M15.2672 22.1953H12.6625C12.6073 22.1953 12.5625 22.2401 12.5625 22.2953V24.9C12.5625 24.9552 12.6073 25 12.6625 25H15.2672C15.3224 25 15.3672 24.9552 15.3672 24.9V22.2953C15.3672 22.2401 15.3224 22.1953 15.2672 22.1953Z" fill="#9896A1"/>
</g>
<g filter="url(#filter6_dii_15_938)">
<path d="M15.2672 27.1953H12.6625C12.6073 27.1953 12.5625 27.2401 12.5625 27.2953V29.9C12.5625 29.9552 12.6073 30 12.6625 30H15.2672C15.3224 30 15.3672 29.9552 15.3672 29.9V27.2953C15.3672 27.2401 15.3224 27.1953 15.2672 27.1953Z" fill="#9896A1"/>
</g>
<g filter="url(#filter7_dii_15_938)">
<path d="M21.2555 22.1953H18.6508C18.5956 22.1953 18.5508 22.2401 18.5508 22.2953V24.9C18.5508 24.9552 18.5956 25 18.6508 25H21.2555C21.3107 25 21.3555 24.9552 21.3555 24.9V22.2953C21.3555 22.2401 21.3107 22.1953 21.2555 22.1953Z" fill="#9896A1"/>
</g>
<g filter="url(#filter8_dii_15_938)">
<path d="M21.2555 27.1953H18.6508C18.5956 27.1953 18.5508 27.2401 18.5508 27.2953V29.9C18.5508 29.9552 18.5956 30 18.6508 30H21.2555C21.3107 30 21.3555 29.9552 21.3555 29.9V27.2953C21.3555 27.2401 21.3107 27.1953 21.2555 27.1953Z" fill="#9896A1"/>
</g>
<g filter="url(#filter9_dii_15_938)">
<path d="M27.2438 22.1953H24.6391C24.5839 22.1953 24.5391 22.2401 24.5391 22.2953V24.9C24.5391 24.9552 24.5839 25 24.6391 25H27.2438C27.299 25 27.3438 24.9552 27.3438 24.9V22.2953C27.3438 22.2401 27.299 22.1953 27.2438 22.1953Z" fill="url(#paint5_linear_15_938)"/>
</g>
<g filter="url(#filter10_dii_15_938)">
<path d="M27.2438 27.1953H24.6391C24.5839 27.1953 24.5391 27.2401 24.5391 27.2953V29.9C24.5391 29.9552 24.5839 30 24.6391 30H27.2438C27.299 30 27.3438 29.9552 27.3438 29.9V27.2953C27.3438 27.2401 27.299 27.1953 27.2438 27.1953Z" fill="#9896A1"/>
</g>
<g filter="url(#filter11_i_15_938)">
<path d="M33.8273 24.372C33.8879 24.3114 33.9219 24.2292 33.9219 24.1435C33.9219 23.965 33.7772 23.8203 33.5988 23.8203H32.4296C27.8732 23.8203 24.1796 27.514 24.1796 32.0703V33.2395C24.1796 33.418 24.3243 33.5627 24.5027 33.5627C24.5884 33.5627 24.6706 33.5286 24.7313 33.468L33.8273 24.372Z" fill="url(#paint6_radial_15_938)"/>
<path d="M33.8273 24.372C33.8879 24.3114 33.9219 24.2292 33.9219 24.1435C33.9219 23.965 33.7772 23.8203 33.5988 23.8203H32.4296C27.8732 23.8203 24.1796 27.514 24.1796 32.0703V33.2395C24.1796 33.418 24.3243 33.5627 24.5027 33.5627C24.5884 33.5627 24.6706 33.5286 24.7313 33.468L33.8273 24.372Z" fill="url(#paint7_linear_15_938)"/>
</g>
<g filter="url(#filter12_f_15_938)">
<path d="M32.9062 13.8613C32.9062 10.9618 31.6562 8.61133 27.6562 8.61133H17.5" stroke="url(#paint8_radial_15_938)" stroke-width="1.5"/>
</g>
<g filter="url(#filter13_f_15_938)">
<path d="M24.3938 7.57031C24.2552 7.94116 24.1796 8.34289 24.1796 8.75948C24.1796 10.342 25.2656 11.6801 26.7696 11.9819C27.1486 12.058 27.5175 11.8123 27.5936 11.4333C27.6697 11.0543 27.424 10.6853 27.045 10.6093C26.213 10.4423 25.5796 9.69341 25.5796 8.75948C25.5796 8.29959 25.7291 7.8892 25.9728 7.57031H24.3938Z" fill="#3E7BC6"/>
</g>
<g filter="url(#filter14_f_15_938)">
<path d="M18.765 7.57031C18.6264 7.94116 18.5508 8.34289 18.5508 8.75948C18.5508 10.342 19.6369 11.6801 21.1408 11.9819C21.5198 12.058 21.8887 11.8123 21.9648 11.4333C22.0409 11.0543 21.7953 10.6853 21.4162 10.6093C20.5842 10.4423 19.9508 9.69341 19.9508 8.75948C19.9508 8.29959 20.1003 7.8892 20.344 7.57031H18.765Z" fill="#3E7BC6"/>
</g>
<g filter="url(#filter15_f_15_938)">
<path d="M13.6043 7.57031C13.4656 7.94116 13.39 8.34289 13.39 8.75948C13.39 10.342 14.4761 11.6801 15.98 11.9819C16.359 12.058 16.728 11.8123 16.804 11.4333C16.8801 11.0543 16.6345 10.6853 16.2554 10.6093C15.4234 10.4423 14.79 9.69341 14.79 8.75948C14.79 8.29959 14.9395 7.8892 15.1832 7.57031H13.6043Z" fill="#3E7BC6"/>
</g>
<g filter="url(#filter16_f_15_938)">
<path d="M9.68994 8.23252C9.55129 8.60337 8.54932 8.56593 8.54932 8.98252C8.54932 10.565 9.60927 11.6801 11.1132 11.9819C11.4922 12.058 11.8612 11.8123 11.9372 11.4333C12.0133 11.0543 11.7677 10.6853 11.3886 10.6093C10.5566 10.4423 9.92319 9.69341 9.92319 8.75948C9.92319 8.29959 10.0727 7.8892 10.3164 7.57031L9.68994 8.23252Z" fill="#324DAF"/>
</g>
<path d="M10.362 8.52841C10.362 7.45507 11.1765 6.65134 12.1016 6.65134C12.7203 6.65134 13.2896 7.01093 13.5988 7.57027H15.1039C14.715 6.2455 13.5404 5.25134 12.1016 5.25134C10.332 5.25134 8.96204 6.75519 8.96204 8.52841C8.96204 10.1109 10.0481 11.449 11.552 11.7508C11.9311 11.8269 12.3 11.5813 12.3761 11.2022C12.4521 10.8232 12.2065 10.4543 11.8275 10.3782C10.9954 10.2112 10.362 9.46234 10.362 8.52841Z" fill="url(#paint9_radial_15_938)"/>
<path d="M10.362 8.52841C10.362 7.45507 11.1765 6.65134 12.1016 6.65134C12.7203 6.65134 13.2896 7.01093 13.5988 7.57027H15.1039C14.715 6.2455 13.5404 5.25134 12.1016 5.25134C10.332 5.25134 8.96204 6.75519 8.96204 8.52841C8.96204 10.1109 10.0481 11.449 11.552 11.7508C11.9311 11.8269 12.3 11.5813 12.3761 11.2022C12.4521 10.8232 12.2065 10.4543 11.8275 10.3782C10.9954 10.2112 10.362 9.46234 10.362 8.52841Z" fill="url(#paint10_radial_15_938)"/>
<g filter="url(#filter17_f_15_938)">
<path d="M11.8616 10.8458C10.6936 10.6114 9.83386 9.56796 9.83386 8.30973C9.83386 6.88646 10.9261 5.73267 12.2734 5.73267C12.9834 5.73267 13.6225 6.05302 14.0683 6.56435" stroke="#D8D7DE" stroke-width="0.4" stroke-linecap="round"/>
</g>
<path d="M15.5743 8.52841C15.5743 7.45507 16.3888 6.65134 17.3139 6.65134C17.9326 6.65134 18.5019 7.01093 18.8111 7.57027H20.3162C19.9273 6.2455 18.7527 5.25134 17.3139 5.25134C15.5443 5.25134 14.1743 6.75519 14.1743 8.52841C14.1743 10.1109 15.2604 11.449 16.7643 11.7508C17.1433 11.8269 17.5123 11.5813 17.5883 11.2022C17.6644 10.8232 17.4188 10.4543 17.0397 10.3782C16.2077 10.2112 15.5743 9.46234 15.5743 8.52841Z" fill="url(#paint11_radial_15_938)"/>
<path d="M15.5743 8.52841C15.5743 7.45507 16.3888 6.65134 17.3139 6.65134C17.9326 6.65134 18.5019 7.01093 18.8111 7.57027H20.3162C19.9273 6.2455 18.7527 5.25134 17.3139 5.25134C15.5443 5.25134 14.1743 6.75519 14.1743 8.52841C14.1743 10.1109 15.2604 11.449 16.7643 11.7508C17.1433 11.8269 17.5123 11.5813 17.5883 11.2022C17.6644 10.8232 17.4188 10.4543 17.0397 10.3782C16.2077 10.2112 15.5743 9.46234 15.5743 8.52841Z" fill="url(#paint12_radial_15_938)"/>
<path d="M20.8243 8.52841C20.8243 7.45507 21.6388 6.65134 22.5639 6.65134C23.1826 6.65134 23.7519 7.01093 24.0611 7.57027H25.5662C25.1773 6.2455 24.0027 5.25134 22.5639 5.25134C20.7943 5.25134 19.4243 6.75519 19.4243 8.52841C19.4243 10.1109 20.5104 11.449 22.0143 11.7508C22.3933 11.8269 22.7623 11.5813 22.8383 11.2022C22.9144 10.8232 22.6688 10.4543 22.2897 10.3782C21.4577 10.2112 20.8243 9.46234 20.8243 8.52841Z" fill="url(#paint13_radial_15_938)"/>
<path d="M20.8243 8.52841C20.8243 7.45507 21.6388 6.65134 22.5639 6.65134C23.1826 6.65134 23.7519 7.01093 24.0611 7.57027H25.5662C25.1773 6.2455 24.0027 5.25134 22.5639 5.25134C20.7943 5.25134 19.4243 6.75519 19.4243 8.52841C19.4243 10.1109 20.5104 11.449 22.0143 11.7508C22.3933 11.8269 22.7623 11.5813 22.8383 11.2022C22.9144 10.8232 22.6688 10.4543 22.2897 10.3782C21.4577 10.2112 20.8243 9.46234 20.8243 8.52841Z" fill="url(#paint14_radial_15_938)"/>
<g filter="url(#filter18_f_15_938)">
<path d="M17.0739 10.8458C15.9059 10.6114 15.0461 9.56796 15.0461 8.30973C15.0461 6.88646 16.1384 5.73267 17.4857 5.73267C18.1956 5.73267 18.8348 6.05302 19.2806 6.56435" stroke="#D8D7DE" stroke-width="0.4" stroke-linecap="round"/>
</g>
<g filter="url(#filter19_f_15_938)">
<path d="M22.3239 10.8458C21.1559 10.6114 20.2961 9.56796 20.2961 8.30973C20.2961 6.88646 21.3884 5.73267 22.7357 5.73267C23.4456 5.73267 24.0848 6.05302 24.5306 6.56435" stroke="#D8D7DE" stroke-width="0.4" stroke-linecap="round"/>
</g>
<path d="M26.0652 8.52841C26.0652 7.45507 26.8797 6.65134 27.8047 6.65134C28.4321 6.65134 29.0086 7.02103 29.3147 7.59378C29.8765 7.64765 30.4118 7.79267 30.9054 8.01389C30.6708 6.47376 29.4002 5.25134 27.8047 5.25134C26.0351 5.25134 24.6652 6.75519 24.6652 8.52841C24.6652 10.1109 25.7512 11.449 27.2551 11.7508C27.6342 11.8269 28.0031 11.5813 28.0792 11.2022C28.1553 10.8232 27.9096 10.4543 27.5306 10.3782C26.6986 10.2112 26.0652 9.46234 26.0652 8.52841Z" fill="url(#paint15_radial_15_938)"/>
<path d="M26.0652 8.52841C26.0652 7.45507 26.8797 6.65134 27.8047 6.65134C28.4321 6.65134 29.0086 7.02103 29.3147 7.59378C29.8765 7.64765 30.4118 7.79267 30.9054 8.01389C30.6708 6.47376 29.4002 5.25134 27.8047 5.25134C26.0351 5.25134 24.6652 6.75519 24.6652 8.52841C24.6652 10.1109 25.7512 11.449 27.2551 11.7508C27.6342 11.8269 28.0031 11.5813 28.0792 11.2022C28.1553 10.8232 27.9096 10.4543 27.5306 10.3782C26.6986 10.2112 26.0652 9.46234 26.0652 8.52841Z" fill="url(#paint16_radial_15_938)"/>
<g filter="url(#filter20_f_15_938)">
<path d="M27.5647 10.8458C26.3967 10.6114 25.537 9.56796 25.537 8.30973C25.537 6.88646 26.6292 5.73267 27.9765 5.73267C28.6865 5.73267 29.3256 6.05302 29.7714 6.56435" stroke="#D8D7DE" stroke-width="0.4" stroke-linecap="round"/>
</g>
<defs>
<filter id="filter0_iiii_15_938" x="5.07812" y="6.57031" width="29.8438" height="26.9924" filterUnits="userSpaceOnUse" color-interpolation-filters="sRGB">
<feFlood flood-opacity="0" result="BackgroundImageFix"/>
<feBlend mode="normal" in="SourceGraphic" in2="BackgroundImageFix" result="shape"/>
<feColorMatrix in="SourceAlpha" type="matrix" values="0 0 0 0 0 0 0 0 0 0 0 0 0 0 0 0 0 0 127 0" result="hardAlpha"/>
<feOffset dy="-1"/>
<feGaussianBlur stdDeviation="1.5"/>
<feComposite in2="hardAlpha" operator="arithmetic" k2="-1" k3="1"/>
<feColorMatrix type="matrix" values="0 0 0 0 0.67451 0 0 0 0 0.619608 0 0 0 0 0.74902 0 0 0 1 0"/>
<feBlend mode="normal" in2="shape" result="effect1_innerShadow_15_938"/>
<feColorMatrix in="SourceAlpha" type="matrix" values="0 0 0 0 0 0 0 0 0 0 0 0 0 0 0 0 0 0 127 0" result="hardAlpha"/>
<feOffset dx="1"/>
<feGaussianBlur stdDeviation="0.75"/>
<feComposite in2="hardAlpha" operator="arithmetic" k2="-1" k3="1"/>
<feColorMatrix type="matrix" values="0 0 0 0 0.8 0 0 0 0 0.788235 0 0 0 0 0.819608 0 0 0 1 0"/>
<feBlend mode="normal" in2="effect1_innerShadow_15_938" result="effect2_innerShadow_15_938"/>
<feColorMatrix in="SourceAlpha" type="matrix" values="0 0 0 0 0 0 0 0 0 0 0 0 0 0 0 0 0 0 127 0" result="hardAlpha"/>
<feOffset dx="-1"/>
<feGaussianBlur stdDeviation="0.75"/>
<feComposite in2="hardAlpha" operator="arithmetic" k2="-1" k3="1"/>
<feColorMatrix type="matrix" values="0 0 0 0 0.956863 0 0 0 0 0.945098 0 0 0 0 0.976471 0 0 0 1 0"/>
<feBlend mode="normal" in2="effect2_innerShadow_15_938" result="effect3_innerShadow_15_938"/>
<feColorMatrix in="SourceAlpha" type="matrix" values="0 0 0 0 0 0 0 0 0 0 0 0 0 0 0 0 0 0 127 0" result="hardAlpha"/>
<feOffset dx="0.25" dy="-0.25"/>
<feGaussianBlur stdDeviation="0.5"/>
<feComposite in2="hardAlpha" operator="arithmetic" k2="-1" k3="1"/>
<feColorMatrix type="matrix" values="0 0 0 0 0.670588 0 0 0 0 0.619608 0 0 0 0 0.745098 0 0 0 1 0"/>
<feBlend mode="normal" in2="effect3_innerShadow_15_938" result="effect4_innerShadow_15_938"/>
</filter>
<filter id="filter1_ii_15_938" x="23.4965" y="23.5946" width="10.8254" height="9.9681" filterUnits="userSpaceOnUse" color-interpolation-filters="sRGB">
<feFlood flood-opacity="0" result="BackgroundImageFix"/>
<feBlend mode="normal" in="SourceGraphic" in2="BackgroundImageFix" result="shape"/>
<feColorMatrix in="SourceAlpha" type="matrix" values="0 0 0 0 0 0 0 0 0 0 0 0 0 0 0 0 0 0 127 0" result="hardAlpha"/>
<feOffset dx="-1"/>
<feGaussianBlur stdDeviation="0.75"/>
<feComposite in2="hardAlpha" operator="arithmetic" k2="-1" k3="1"/>
<feColorMatrix type="matrix" values="0 0 0 0 0.937255 0 0 0 0 0.917647 0 0 0 0 0.964706 0 0 0 1 0"/>
<feBlend mode="normal" in2="shape" result="effect1_innerShadow_15_938"/>
<feColorMatrix in="SourceAlpha" type="matrix" values="0 0 0 0 0 0 0 0 0 0 0 0 0 0 0 0 0 0 127 0" result="hardAlpha"/>
<feOffset dx="0.4" dy="-0.6"/>
<feGaussianBlur stdDeviation="0.75"/>
<feComposite in2="hardAlpha" operator="arithmetic" k2="-1" k3="1"/>
<feColorMatrix type="matrix" values="0 0 0 0 0.658824 0 0 0 0 0.607843 0 0 0 0 0.729412 0 0 0 1 0"/>
<feBlend mode="normal" in2="effect1_innerShadow_15_938" result="effect2_innerShadow_15_938"/>
</filter>
<filter id="filter2_dii_15_938" x="12.1625" y="16.9953" width="3.40469" height="3.40469" filterUnits="userSpaceOnUse" color-interpolation-filters="sRGB">
<feFlood flood-opacity="0" result="BackgroundImageFix"/>
<feColorMatrix in="SourceAlpha" type="matrix" values="0 0 0 0 0 0 0 0 0 0 0 0 0 0 0 0 0 0 127 0" result="hardAlpha"/>
<feOffset dx="-0.1" dy="0.1"/>
<feGaussianBlur stdDeviation="0.15"/>
<feComposite in2="hardAlpha" operator="out"/>
<feColorMatrix type="matrix" values="0 0 0 0 0.772549 0 0 0 0 0.752941 0 0 0 0 0.803922 0 0 0 1 0"/>
<feBlend mode="normal" in2="BackgroundImageFix" result="effect1_dropShadow_15_938"/>
<feBlend mode="normal" in="SourceGraphic" in2="effect1_dropShadow_15_938" result="shape"/>
<feColorMatrix in="SourceAlpha" type="matrix" values="0 0 0 0 0 0 0 0 0 0 0 0 0 0 0 0 0 0 127 0" result="hardAlpha"/>
<feOffset dx="-0.1" dy="0.1"/>
<feGaussianBlur stdDeviation="0.075"/>
<feComposite in2="hardAlpha" operator="arithmetic" k2="-1" k3="1"/>
<feColorMatrix type="matrix" values="0 0 0 0 0.654902 0 0 0 0 0.647059 0 0 0 0 0.682353 0 0 0 1 0"/>
<feBlend mode="normal" in2="shape" result="effect2_innerShadow_15_938"/>
<feColorMatrix in="SourceAlpha" type="matrix" values="0 0 0 0 0 0 0 0 0 0 0 0 0 0 0 0 0 0 127 0" result="hardAlpha"/>
<feOffset dx="0.1" dy="-0.1"/>
<feGaussianBlur stdDeviation="0.075"/>
<feComposite in2="hardAlpha" operator="arithmetic" k2="-1" k3="1"/>
<feColorMatrix type="matrix" values="0 0 0 0 0.572549 0 0 0 0 0.564706 0 0 0 0 0.607843 0 0 0 1 0"/>
<feBlend mode="normal" in2="effect2_innerShadow_15_938" result="effect3_innerShadow_15_938"/>
</filter>
<filter id="filter3_dii_15_938" x="18.1508" y="16.9953" width="3.40469" height="3.40469" filterUnits="userSpaceOnUse" color-interpolation-filters="sRGB">
<feFlood flood-opacity="0" result="BackgroundImageFix"/>
<feColorMatrix in="SourceAlpha" type="matrix" values="0 0 0 0 0 0 0 0 0 0 0 0 0 0 0 0 0 0 127 0" result="hardAlpha"/>
<feOffset dx="-0.1" dy="0.1"/>
<feGaussianBlur stdDeviation="0.15"/>
<feComposite in2="hardAlpha" operator="out"/>
<feColorMatrix type="matrix" values="0 0 0 0 0.772549 0 0 0 0 0.752941 0 0 0 0 0.803922 0 0 0 1 0"/>
<feBlend mode="normal" in2="BackgroundImageFix" result="effect1_dropShadow_15_938"/>
<feBlend mode="normal" in="SourceGraphic" in2="effect1_dropShadow_15_938" result="shape"/>
<feColorMatrix in="SourceAlpha" type="matrix" values="0 0 0 0 0 0 0 0 0 0 0 0 0 0 0 0 0 0 127 0" result="hardAlpha"/>
<feOffset dx="-0.1" dy="0.1"/>
<feGaussianBlur stdDeviation="0.075"/>
<feComposite in2="hardAlpha" operator="arithmetic" k2="-1" k3="1"/>
<feColorMatrix type="matrix" values="0 0 0 0 0.654902 0 0 0 0 0.647059 0 0 0 0 0.682353 0 0 0 1 0"/>
<feBlend mode="normal" in2="shape" result="effect2_innerShadow_15_938"/>
<feColorMatrix in="SourceAlpha" type="matrix" values="0 0 0 0 0 0 0 0 0 0 0 0 0 0 0 0 0 0 127 0" result="hardAlpha"/>
<feOffset dx="0.1" dy="-0.1"/>
<feGaussianBlur stdDeviation="0.075"/>
<feComposite in2="hardAlpha" operator="arithmetic" k2="-1" k3="1"/>
<feColorMatrix type="matrix" values="0 0 0 0 0.572549 0 0 0 0 0.564706 0 0 0 0 0.607843 0 0 0 1 0"/>
<feBlend mode="normal" in2="effect2_innerShadow_15_938" result="effect3_innerShadow_15_938"/>
</filter>
<filter id="filter4_dii_15_938" x="24.1391" y="16.9953" width="3.40469" height="3.40469" filterUnits="userSpaceOnUse" color-interpolation-filters="sRGB">
<feFlood flood-opacity="0" result="BackgroundImageFix"/>
<feColorMatrix in="SourceAlpha" type="matrix" values="0 0 0 0 0 0 0 0 0 0 0 0 0 0 0 0 0 0 127 0" result="hardAlpha"/>
<feOffset dx="-0.1" dy="0.1"/>
<feGaussianBlur stdDeviation="0.15"/>
<feComposite in2="hardAlpha" operator="out"/>
<feColorMatrix type="matrix" values="0 0 0 0 0.772549 0 0 0 0 0.752941 0 0 0 0 0.803922 0 0 0 1 0"/>
<feBlend mode="normal" in2="BackgroundImageFix" result="effect1_dropShadow_15_938"/>
<feBlend mode="normal" in="SourceGraphic" in2="effect1_dropShadow_15_938" result="shape"/>
<feColorMatrix in="SourceAlpha" type="matrix" values="0 0 0 0 0 0 0 0 0 0 0 0 0 0 0 0 0 0 127 0" result="hardAlpha"/>
<feOffset dx="-0.1" dy="0.1"/>
<feGaussianBlur stdDeviation="0.075"/>
<feComposite in2="hardAlpha" operator="arithmetic" k2="-1" k3="1"/>
<feColorMatrix type="matrix" values="0 0 0 0 0.654902 0 0 0 0 0.647059 0 0 0 0 0.682353 0 0 0 1 0"/>
<feBlend mode="normal" in2="shape" result="effect2_innerShadow_15_938"/>
<feColorMatrix in="SourceAlpha" type="matrix" values="0 0 0 0 0 0 0 0 0 0 0 0 0 0 0 0 0 0 127 0" result="hardAlpha"/>
<feOffset dx="0.1" dy="-0.1"/>
<feGaussianBlur stdDeviation="0.075"/>
<feComposite in2="hardAlpha" operator="arithmetic" k2="-1" k3="1"/>
<feColorMatrix type="matrix" values="0 0 0 0 0.572549 0 0 0 0 0.564706 0 0 0 0 0.607843 0 0 0 1 0"/>
<feBlend mode="normal" in2="effect2_innerShadow_15_938" result="effect3_innerShadow_15_938"/>
</filter>
<filter id="filter5_dii_15_938" x="12.1625" y="21.9953" width="3.40469" height="3.40469" filterUnits="userSpaceOnUse" color-interpolation-filters="sRGB">
<feFlood flood-opacity="0" result="BackgroundImageFix"/>
<feColorMatrix in="SourceAlpha" type="matrix" values="0 0 0 0 0 0 0 0 0 0 0 0 0 0 0 0 0 0 127 0" result="hardAlpha"/>
<feOffset dx="-0.1" dy="0.1"/>
<feGaussianBlur stdDeviation="0.15"/>
<feComposite in2="hardAlpha" operator="out"/>
<feColorMatrix type="matrix" values="0 0 0 0 0.772549 0 0 0 0 0.752941 0 0 0 0 0.803922 0 0 0 1 0"/>
<feBlend mode="normal" in2="BackgroundImageFix" result="effect1_dropShadow_15_938"/>
<feBlend mode="normal" in="SourceGraphic" in2="effect1_dropShadow_15_938" result="shape"/>
<feColorMatrix in="SourceAlpha" type="matrix" values="0 0 0 0 0 0 0 0 0 0 0 0 0 0 0 0 0 0 127 0" result="hardAlpha"/>
<feOffset dx="-0.1" dy="0.1"/>
<feGaussianBlur stdDeviation="0.075"/>
<feComposite in2="hardAlpha" operator="arithmetic" k2="-1" k3="1"/>
<feColorMatrix type="matrix" values="0 0 0 0 0.654902 0 0 0 0 0.647059 0 0 0 0 0.682353 0 0 0 1 0"/>
<feBlend mode="normal" in2="shape" result="effect2_innerShadow_15_938"/>
<feColorMatrix in="SourceAlpha" type="matrix" values="0 0 0 0 0 0 0 0 0 0 0 0 0 0 0 0 0 0 127 0" result="hardAlpha"/>
<feOffset dx="0.1" dy="-0.1"/>
<feGaussianBlur stdDeviation="0.075"/>
<feComposite in2="hardAlpha" operator="arithmetic" k2="-1" k3="1"/>
<feColorMatrix type="matrix" values="0 0 0 0 0.572549 0 0 0 0 0.564706 0 0 0 0 0.607843 0 0 0 1 0"/>
<feBlend mode="normal" in2="effect2_innerShadow_15_938" result="effect3_innerShadow_15_938"/>
</filter>
<filter id="filter6_dii_15_938" x="12.1625" y="26.9953" width="3.40469" height="3.40469" filterUnits="userSpaceOnUse" color-interpolation-filters="sRGB">
<feFlood flood-opacity="0" result="BackgroundImageFix"/>
<feColorMatrix in="SourceAlpha" type="matrix" values="0 0 0 0 0 0 0 0 0 0 0 0 0 0 0 0 0 0 127 0" result="hardAlpha"/>
<feOffset dx="-0.1" dy="0.1"/>
<feGaussianBlur stdDeviation="0.15"/>
<feComposite in2="hardAlpha" operator="out"/>
<feColorMatrix type="matrix" values="0 0 0 0 0.772549 0 0 0 0 0.752941 0 0 0 0 0.803922 0 0 0 1 0"/>
<feBlend mode="normal" in2="BackgroundImageFix" result="effect1_dropShadow_15_938"/>
<feBlend mode="normal" in="SourceGraphic" in2="effect1_dropShadow_15_938" result="shape"/>
<feColorMatrix in="SourceAlpha" type="matrix" values="0 0 0 0 0 0 0 0 0 0 0 0 0 0 0 0 0 0 127 0" result="hardAlpha"/>
<feOffset dx="-0.1" dy="0.1"/>
<feGaussianBlur stdDeviation="0.075"/>
<feComposite in2="hardAlpha" operator="arithmetic" k2="-1" k3="1"/>
<feColorMatrix type="matrix" values="0 0 0 0 0.654902 0 0 0 0 0.647059 0 0 0 0 0.682353 0 0 0 1 0"/>
<feBlend mode="normal" in2="shape" result="effect2_innerShadow_15_938"/>
<feColorMatrix in="SourceAlpha" type="matrix" values="0 0 0 0 0 0 0 0 0 0 0 0 0 0 0 0 0 0 127 0" result="hardAlpha"/>
<feOffset dx="0.1" dy="-0.1"/>
<feGaussianBlur stdDeviation="0.075"/>
<feComposite in2="hardAlpha" operator="arithmetic" k2="-1" k3="1"/>
<feColorMatrix type="matrix" values="0 0 0 0 0.572549 0 0 0 0 0.564706 0 0 0 0 0.607843 0 0 0 1 0"/>
<feBlend mode="normal" in2="effect2_innerShadow_15_938" result="effect3_innerShadow_15_938"/>
</filter>
<filter id="filter7_dii_15_938" x="18.1508" y="21.9953" width="3.40469" height="3.40469" filterUnits="userSpaceOnUse" color-interpolation-filters="sRGB">
<feFlood flood-opacity="0" result="BackgroundImageFix"/>
<feColorMatrix in="SourceAlpha" type="matrix" values="0 0 0 0 0 0 0 0 0 0 0 0 0 0 0 0 0 0 127 0" result="hardAlpha"/>
<feOffset dx="-0.1" dy="0.1"/>
<feGaussianBlur stdDeviation="0.15"/>
<feComposite in2="hardAlpha" operator="out"/>
<feColorMatrix type="matrix" values="0 0 0 0 0.772549 0 0 0 0 0.752941 0 0 0 0 0.803922 0 0 0 1 0"/>
<feBlend mode="normal" in2="BackgroundImageFix" result="effect1_dropShadow_15_938"/>
<feBlend mode="normal" in="SourceGraphic" in2="effect1_dropShadow_15_938" result="shape"/>
<feColorMatrix in="SourceAlpha" type="matrix" values="0 0 0 0 0 0 0 0 0 0 0 0 0 0 0 0 0 0 127 0" result="hardAlpha"/>
<feOffset dx="-0.1" dy="0.1"/>
<feGaussianBlur stdDeviation="0.075"/>
<feComposite in2="hardAlpha" operator="arithmetic" k2="-1" k3="1"/>
<feColorMatrix type="matrix" values="0 0 0 0 0.654902 0 0 0 0 0.647059 0 0 0 0 0.682353 0 0 0 1 0"/>
<feBlend mode="normal" in2="shape" result="effect2_innerShadow_15_938"/>
<feColorMatrix in="SourceAlpha" type="matrix" values="0 0 0 0 0 0 0 0 0 0 0 0 0 0 0 0 0 0 127 0" result="hardAlpha"/>
<feOffset dx="0.1" dy="-0.1"/>
<feGaussianBlur stdDeviation="0.075"/>
<feComposite in2="hardAlpha" operator="arithmetic" k2="-1" k3="1"/>
<feColorMatrix type="matrix" values="0 0 0 0 0.572549 0 0 0 0 0.564706 0 0 0 0 0.607843 0 0 0 1 0"/>
<feBlend mode="normal" in2="effect2_innerShadow_15_938" result="effect3_innerShadow_15_938"/>
</filter>
<filter id="filter8_dii_15_938" x="18.1508" y="26.9953" width="3.40469" height="3.40469" filterUnits="userSpaceOnUse" color-interpolation-filters="sRGB">
<feFlood flood-opacity="0" result="BackgroundImageFix"/>
<feColorMatrix in="SourceAlpha" type="matrix" values="0 0 0 0 0 0 0 0 0 0 0 0 0 0 0 0 0 0 127 0" result="hardAlpha"/>
<feOffset dx="-0.1" dy="0.1"/>
<feGaussianBlur stdDeviation="0.15"/>
<feComposite in2="hardAlpha" operator="out"/>
<feColorMatrix type="matrix" values="0 0 0 0 0.772549 0 0 0 0 0.752941 0 0 0 0 0.803922 0 0 0 1 0"/>
<feBlend mode="normal" in2="BackgroundImageFix" result="effect1_dropShadow_15_938"/>
<feBlend mode="normal" in="SourceGraphic" in2="effect1_dropShadow_15_938" result="shape"/>
<feColorMatrix in="SourceAlpha" type="matrix" values="0 0 0 0 0 0 0 0 0 0 0 0 0 0 0 0 0 0 127 0" result="hardAlpha"/>
<feOffset dx="-0.1" dy="0.1"/>
<feGaussianBlur stdDeviation="0.075"/>
<feComposite in2="hardAlpha" operator="arithmetic" k2="-1" k3="1"/>
<feColorMatrix type="matrix" values="0 0 0 0 0.654902 0 0 0 0 0.647059 0 0 0 0 0.682353 0 0 0 1 0"/>
<feBlend mode="normal" in2="shape" result="effect2_innerShadow_15_938"/>
<feColorMatrix in="SourceAlpha" type="matrix" values="0 0 0 0 0 0 0 0 0 0 0 0 0 0 0 0 0 0 127 0" result="hardAlpha"/>
<feOffset dx="0.1" dy="-0.1"/>
<feGaussianBlur stdDeviation="0.075"/>
<feComposite in2="hardAlpha" operator="arithmetic" k2="-1" k3="1"/>
<feColorMatrix type="matrix" values="0 0 0 0 0.572549 0 0 0 0 0.564706 0 0 0 0 0.607843 0 0 0 1 0"/>
<feBlend mode="normal" in2="effect2_innerShadow_15_938" result="effect3_innerShadow_15_938"/>
</filter>
<filter id="filter9_dii_15_938" x="24.1391" y="21.9953" width="3.40469" height="3.40469" filterUnits="userSpaceOnUse" color-interpolation-filters="sRGB">
<feFlood flood-opacity="0" result="BackgroundImageFix"/>
<feColorMatrix in="SourceAlpha" type="matrix" values="0 0 0 0 0 0 0 0 0 0 0 0 0 0 0 0 0 0 127 0" result="hardAlpha"/>
<feOffset dx="-0.1" dy="0.1"/>
<feGaussianBlur stdDeviation="0.15"/>
<feComposite in2="hardAlpha" operator="out"/>
<feColorMatrix type="matrix" values="0 0 0 0 0.858824 0 0 0 0 0.835294 0 0 0 0 0.917647 0 0 0 1 0"/>
<feBlend mode="normal" in2="BackgroundImageFix" result="effect1_dropShadow_15_938"/>
<feBlend mode="normal" in="SourceGraphic" in2="effect1_dropShadow_15_938" result="shape"/>
<feColorMatrix in="SourceAlpha" type="matrix" values="0 0 0 0 0 0 0 0 0 0 0 0 0 0 0 0 0 0 127 0" result="hardAlpha"/>
<feOffset dx="-0.1" dy="0.1"/>
<feGaussianBlur stdDeviation="0.075"/>
<feComposite in2="hardAlpha" operator="arithmetic" k2="-1" k3="1"/>
<feColorMatrix type="matrix" values="0 0 0 0 0.34902 0 0 0 0 0.631373 0 0 0 0 0.917647 0 0 0 1 0"/>
<feBlend mode="normal" in2="shape" result="effect2_innerShadow_15_938"/>
<feColorMatrix in="SourceAlpha" type="matrix" values="0 0 0 0 0 0 0 0 0 0 0 0 0 0 0 0 0 0 127 0" result="hardAlpha"/>
<feOffset dx="0.1" dy="-0.1"/>
<feGaussianBlur stdDeviation="0.075"/>
<feComposite in2="hardAlpha" operator="arithmetic" k2="-1" k3="1"/>
<feColorMatrix type="matrix" values="0 0 0 0 0.254902 0 0 0 0 0.498039 0 0 0 0 0.819608 0 0 0 1 0"/>
<feBlend mode="normal" in2="effect2_innerShadow_15_938" result="effect3_innerShadow_15_938"/>
</filter>
<filter id="filter10_dii_15_938" x="24.1391" y="26.9953" width="3.40469" height="3.40469" filterUnits="userSpaceOnUse" color-interpolation-filters="sRGB">
<feFlood flood-opacity="0" result="BackgroundImageFix"/>
<feColorMatrix in="SourceAlpha" type="matrix" values="0 0 0 0 0 0 0 0 0 0 0 0 0 0 0 0 0 0 127 0" result="hardAlpha"/>
<feOffset dx="-0.1" dy="0.1"/>
<feGaussianBlur stdDeviation="0.15"/>
<feComposite in2="hardAlpha" operator="out"/>
<feColorMatrix type="matrix" values="0 0 0 0 0.772549 0 0 0 0 0.752941 0 0 0 0 0.803922 0 0 0 1 0"/>
<feBlend mode="normal" in2="BackgroundImageFix" result="effect1_dropShadow_15_938"/>
<feBlend mode="normal" in="SourceGraphic" in2="effect1_dropShadow_15_938" result="shape"/>
<feColorMatrix in="SourceAlpha" type="matrix" values="0 0 0 0 0 0 0 0 0 0 0 0 0 0 0 0 0 0 127 0" result="hardAlpha"/>
<feOffset dx="-0.1" dy="0.1"/>
<feGaussianBlur stdDeviation="0.075"/>
<feComposite in2="hardAlpha" operator="arithmetic" k2="-1" k3="1"/>
<feColorMatrix type="matrix" values="0 0 0 0 0.654902 0 0 0 0 0.647059 0 0 0 0 0.682353 0 0 0 1 0"/>
<feBlend mode="normal" in2="shape" result="effect2_innerShadow_15_938"/>
<feColorMatrix in="SourceAlpha" type="matrix" values="0 0 0 0 0 0 0 0 0 0 0 0 0 0 0 0 0 0 127 0" result="hardAlpha"/>
<feOffset dx="0.1" dy="-0.1"/>
<feGaussianBlur stdDeviation="0.075"/>
<feComposite in2="hardAlpha" operator="arithmetic" k2="-1" k3="1"/>
<feColorMatrix type="matrix" values="0 0 0 0 0.572549 0 0 0 0 0.564706 0 0 0 0 0.607843 0 0 0 1 0"/>
<feBlend mode="normal" in2="effect2_innerShadow_15_938" result="effect3_innerShadow_15_938"/>
</filter>
<filter id="filter11_i_15_938" x="24.1796" y="23.8203" width="9.84231" height="9.8424" filterUnits="userSpaceOnUse" color-interpolation-filters="sRGB">
<feFlood flood-opacity="0" result="BackgroundImageFix"/>
<feBlend mode="normal" in="SourceGraphic" in2="BackgroundImageFix" result="shape"/>
<feColorMatrix in="SourceAlpha" type="matrix" values="0 0 0 0 0 0 0 0 0 0 0 0 0 0 0 0 0 0 127 0" result="hardAlpha"/>
<feOffset dx="0.1" dy="0.1"/>
<feGaussianBlur stdDeviation="0.1"/>
<feComposite in2="hardAlpha" operator="arithmetic" k2="-1" k3="1"/>
<feColorMatrix type="matrix" values="0 0 0 0 0.803922 0 0 0 0 0.807843 0 0 0 0 0.870588 0 0 0 1 0"/>
<feBlend mode="normal" in2="shape" result="effect1_innerShadow_15_938"/>
</filter>
<filter id="filter12_f_15_938" x="16.25" y="6.61133" width="18.6562" height="8.5" filterUnits="userSpaceOnUse" color-interpolation-filters="sRGB">
<feFlood flood-opacity="0" result="BackgroundImageFix"/>
<feBlend mode="normal" in="SourceGraphic" in2="BackgroundImageFix" result="shape"/>
<feGaussianBlur stdDeviation="0.625" result="effect1_foregroundBlur_15_938"/>
</filter>
<filter id="filter13_f_15_938" x="23.4296" y="6.82031" width="4.92783" height="5.9254" filterUnits="userSpaceOnUse" color-interpolation-filters="sRGB">
<feFlood flood-opacity="0" result="BackgroundImageFix"/>
<feBlend mode="normal" in="SourceGraphic" in2="BackgroundImageFix" result="shape"/>
<feGaussianBlur stdDeviation="0.375" result="effect1_foregroundBlur_15_938"/>
</filter>
<filter id="filter14_f_15_938" x="17.8008" y="6.82031" width="4.92783" height="5.9254" filterUnits="userSpaceOnUse" color-interpolation-filters="sRGB">
<feFlood flood-opacity="0" result="BackgroundImageFix"/>
<feBlend mode="normal" in="SourceGraphic" in2="BackgroundImageFix" result="shape"/>
<feGaussianBlur stdDeviation="0.375" result="effect1_foregroundBlur_15_938"/>
</filter>
<filter id="filter15_f_15_938" x="12.64" y="6.82031" width="4.92783" height="5.9254" filterUnits="userSpaceOnUse" color-interpolation-filters="sRGB">
<feFlood flood-opacity="0" result="BackgroundImageFix"/>
<feBlend mode="normal" in="SourceGraphic" in2="BackgroundImageFix" result="shape"/>
<feGaussianBlur stdDeviation="0.375" result="effect1_foregroundBlur_15_938"/>
</filter>
<filter id="filter16_f_15_938" x="7.79932" y="6.82031" width="4.9017" height="5.9254" filterUnits="userSpaceOnUse" color-interpolation-filters="sRGB">
<feFlood flood-opacity="0" result="BackgroundImageFix"/>
<feBlend mode="normal" in="SourceGraphic" in2="BackgroundImageFix" result="shape"/>
<feGaussianBlur stdDeviation="0.375" result="effect1_foregroundBlur_15_938"/>
</filter>
<filter id="filter17_f_15_938" x="9.03385" y="4.93267" width="5.83446" height="6.7132" filterUnits="userSpaceOnUse" color-interpolation-filters="sRGB">
<feFlood flood-opacity="0" result="BackgroundImageFix"/>
<feBlend mode="normal" in="SourceGraphic" in2="BackgroundImageFix" result="shape"/>
<feGaussianBlur stdDeviation="0.3" result="effect1_foregroundBlur_15_938"/>
</filter>
<filter id="filter18_f_15_938" x="14.2461" y="4.93267" width="5.83452" height="6.7132" filterUnits="userSpaceOnUse" color-interpolation-filters="sRGB">
<feFlood flood-opacity="0" result="BackgroundImageFix"/>
<feBlend mode="normal" in="SourceGraphic" in2="BackgroundImageFix" result="shape"/>
<feGaussianBlur stdDeviation="0.3" result="effect1_foregroundBlur_15_938"/>
</filter>
<filter id="filter19_f_15_938" x="19.4961" y="4.93267" width="5.83452" height="6.7132" filterUnits="userSpaceOnUse" color-interpolation-filters="sRGB">
<feFlood flood-opacity="0" result="BackgroundImageFix"/>
<feBlend mode="normal" in="SourceGraphic" in2="BackgroundImageFix" result="shape"/>
<feGaussianBlur stdDeviation="0.3" result="effect1_foregroundBlur_15_938"/>
</filter>
<filter id="filter20_f_15_938" x="24.737" y="4.93267" width="5.83443" height="6.7132" filterUnits="userSpaceOnUse" color-interpolation-filters="sRGB">
<feFlood flood-opacity="0" result="BackgroundImageFix"/>
<feBlend mode="normal" in="SourceGraphic" in2="BackgroundImageFix" result="shape"/>
<feGaussianBlur stdDeviation="0.3" result="effect1_foregroundBlur_15_938"/>
</filter>
<linearGradient id="paint0_linear_15_938" x1="9.17534" y1="22.0702" x2="32.0231" y2="22.0702" gradientUnits="userSpaceOnUse">
<stop stop-color="#E4DEEC"/>
<stop offset="1" stop-color="#E7E2EF"/>
</linearGradient>
<linearGradient id="paint1_linear_15_938" x1="5.75129" y1="12.8318" x2="31.8363" y2="12.8318" gradientUnits="userSpaceOnUse">
<stop stop-color="#4271C7"/>
<stop offset="0.794195" stop-color="#4F9FDC"/>
</linearGradient>
<linearGradient id="paint2_linear_15_938" x1="20" y1="7.57031" x2="20" y2="9.48633" gradientUnits="userSpaceOnUse">
<stop stop-color="#5591D3"/>
<stop offset="1" stop-color="#5591D3" stop-opacity="0"/>
</linearGradient>
<radialGradient id="paint3_radial_15_938" cx="0" cy="0" r="1" gradientUnits="userSpaceOnUse" gradientTransform="translate(25.7113 14.3828) rotate(-170.157) scale(19.9265 11.0778)">
<stop offset="0.758836" stop-color="#3E62C2" stop-opacity="0"/>
<stop offset="1" stop-color="#3B41A1"/>
</radialGradient>
<linearGradient id="paint4_linear_15_938" x1="25.175" y1="15.204" x2="25.175" y2="13.7441" gradientUnits="userSpaceOnUse">
<stop stop-color="#437AC4"/>
<stop offset="1" stop-color="#437AC4" stop-opacity="0"/>
</linearGradient>
<linearGradient id="paint5_linear_15_938" x1="27.6406" y1="22.1953" x2="23.9844" y2="24.8203" gradientUnits="userSpaceOnUse">
<stop stop-color="#6E48E1"/>
<stop offset="1" stop-color="#5D4279"/>
</linearGradient>
<radialGradient id="paint6_radial_15_938" cx="0" cy="0" r="1" gradientUnits="userSpaceOnUse" gradientTransform="translate(27.0157 26.2578) rotate(45.6992) scale(3.40051 8.24079)">
<stop stop-color="#E4DDED"/>
<stop offset="1" stop-color="#D5CFDC"/>
</radialGradient>
<linearGradient id="paint7_linear_15_938" x1="29.1098" y1="29.2694" x2="28.852" y2="29.0117" gradientUnits="userSpaceOnUse">
<stop offset="0.461334" stop-color="#BFB8CA"/>
<stop offset="1" stop-color="#D9D3E0" stop-opacity="0"/>
</linearGradient>
<radialGradient id="paint8_radial_15_938" cx="0" cy="0" r="1" gradientUnits="userSpaceOnUse" gradientTransform="translate(34.9063 8.61133) rotate(152.761) scale(10.0874 14.5049)">
<stop stop-color="#70C0F8"/>
<stop offset="1" stop-color="#70C0F8" stop-opacity="0"/>
</radialGradient>
<radialGradient id="paint9_radial_15_938" cx="0" cy="0" r="1" gradientUnits="userSpaceOnUse" gradientTransform="translate(13.4631 7.9356) rotate(137.82) scale(4.65984 5.16076)">
<stop offset="0.525413" stop-color="#C2C4CC"/>
<stop offset="0.961617" stop-color="#938DA1"/>
</radialGradient>
<radialGradient id="paint10_radial_15_938" cx="0" cy="0" r="1" gradientUnits="userSpaceOnUse" gradientTransform="translate(12.26 8.50793) rotate(-60.5546) scale(2.41561 2.53588)">
<stop offset="0.545652" stop-color="#8F96BB"/>
<stop offset="1" stop-color="#8F96BB" stop-opacity="0"/>
</radialGradient>
<radialGradient id="paint11_radial_15_938" cx="0" cy="0" r="1" gradientUnits="userSpaceOnUse" gradientTransform="translate(18.6754 7.9356) rotate(137.82) scale(4.65984 5.16076)">
<stop offset="0.525413" stop-color="#C2C4CC"/>
<stop offset="0.961617" stop-color="#938DA1"/>
</radialGradient>
<radialGradient id="paint12_radial_15_938" cx="0" cy="0" r="1" gradientUnits="userSpaceOnUse" gradientTransform="translate(17.4723 8.50793) rotate(-60.5546) scale(2.41561 2.53588)">
<stop offset="0.545652" stop-color="#8F96BB"/>
<stop offset="1" stop-color="#8F96BB" stop-opacity="0"/>
</radialGradient>
<radialGradient id="paint13_radial_15_938" cx="0" cy="0" r="1" gradientUnits="userSpaceOnUse" gradientTransform="translate(23.9254 7.9356) rotate(137.82) scale(4.65984 5.16076)">
<stop offset="0.525413" stop-color="#C2C4CC"/>
<stop offset="0.961617" stop-color="#938DA1"/>
</radialGradient>
<radialGradient id="paint14_radial_15_938" cx="0" cy="0" r="1" gradientUnits="userSpaceOnUse" gradientTransform="translate(22.7223 8.50793) rotate(-60.5546) scale(2.41561 2.53588)">
<stop offset="0.545652" stop-color="#8F96BB"/>
<stop offset="1" stop-color="#8F96BB" stop-opacity="0"/>
</radialGradient>
<radialGradient id="paint15_radial_15_938" cx="0" cy="0" r="1" gradientUnits="userSpaceOnUse" gradientTransform="translate(29.1663 7.9356) rotate(137.82) scale(4.65984 5.16076)">
<stop offset="0.525413" stop-color="#C2C4CC"/>
<stop offset="0.961617" stop-color="#938DA1"/>
</radialGradient>
<radialGradient id="paint16_radial_15_938" cx="0" cy="0" r="1" gradientUnits="userSpaceOnUse" gradientTransform="translate(27.9631 8.50793) rotate(-60.5546) scale(2.41561 2.53588)">
<stop offset="0.545652" stop-color="#8F96BB"/>
<stop offset="1" stop-color="#8F96BB" stop-opacity="0"/>
</radialGradient>
</defs>
</svg>
